<?xml version="1.0" standalone="no"?><svg xmlns:xlink="http://www.w3.org/1999/xlink" xmlns="http://www.w3.org/2000/svg" viewBox="0 0 1000 625" preserveAspectRatio="xMaxYMax slice"><g transform="scale(0.9044862518089726)"><rect x="0" y="0" width="1105.6" height="691" fill="#292929"/><rect x="0" y="0" width="69.1" height="69.1" fill="#292929"/><rect x="0" y="0" width="34.55" height="34.55" fill="#123524"/><path d="M 0 34.55 A 34.55 34.55 0 0 0 34.55 0 L 0 0" fill="#123524"/><rect x="34.55" y="0" width="34.55" height="34.55" fill="#123524"/><rect x="34.55" y="0" width="34.55" height="34.55" fill="#123524"/><rect x="0" y="34.55" width="34.55" height="34.55" fill="#017a31"/><g transform="translate(0,34.55) scale(1.7274999999999998) rotate(0)"><path d="M10 1L12.2451 7.90983H19.5106L13.6327 12.1803L15.8779 19.0902L10 14.8197L4.12215 19.0902L6.36729 12.1803L0.489441 7.90983H7.75487L10 1Z" fill="#017a31"/></g><rect x="34.55" y="34.55" width="34.55" height="34.55" fill="#017a31"/><rect x="34.55" y="34.55" width="34.55" height="34.55" fill="#017a31"/><rect x="69.1" y="0" width="69.1" height="69.1" fill="#123524"/><rect x="69.1" y="0" width="69.1" height="69.1" fill="#123524"/><rect x="138.2" y="0" width="69.1" height="69.1" fill="#123524"/><g transform="translate(138.2,0) scale(3.4549999999999996) rotate(0)"><path d="M10 1L12.2451 7.90983H19.5106L13.6327 12.1803L15.8779 19.0902L10 14.8197L4.12215 19.0902L6.36729 12.1803L0.489441 7.90983H7.75487L10 1Z" fill="#123524"/></g><rect x="207.3" y="0" width="69.1" height="69.1" fill="#123524"/><path d="M 207.3 69.1 A 69.1 69.1 0 0 1  276.4 0 L 207.3 69.1 A 69.1 69.1 0 0 0 276.4 0" fill="#017a31"/><rect x="276.4" y="0" width="69.1" height="69.1" fill="#292929"/><rect x="276.4" y="0" width="34.55" height="34.55" fill="#123524"/><rect x="276.4" y="0" width="34.55" height="34.55" fill="#123524"/><rect x="310.95" y="0" width="34.55" height="34.55" fill="#123524"/><polygon points="345.5,0 345.5,34.55 310.95,34.55" fill="#017a31"/><rect x="276.4" y="34.55" width="34.55" height="34.55" fill="#123524"/><polygon points="276.4,34.55 310.95,34.55 276.4,69.1" fill="#017a31"/><rect x="310.95" y="34.55" width="34.55" height="34.55" fill="#017a31"/><polygon points="310.95,34.55 345.5,69.1 310.95,69.1" fill="#017a31"/><rect x="345.5" y="0" width="69.1" height="69.1" fill="#292929"/><rect x="345.5" y="0" width="34.55" height="34.55" fill="#123524"/><rect x="345.5" y="0" width="34.55" height="34.55" fill="#123524"/><rect x="380.05" y="0" width="34.55" height="34.55" fill="#017a31"/><polygon points="380.05,0 414.6,0 414.6,34.55" fill="#123524"/><rect x="345.5" y="34.55" width="34.55" height="34.55" fill="#123524"/><rect x="345.5" y="34.55" width="34.55" height="34.55" fill="#123524"/><rect x="380.05" y="34.55" width="34.55" height="34.55" fill="#017a31"/><g transform="translate(380.05,34.55) scale(1.7274999999999998) rotate(0)"><path d="M10 1L12.2451 7.90983H19.5106L13.6327 12.1803L15.8779 19.0902L10 14.8197L4.12215 19.0902L6.36729 12.1803L0.489441 7.90983H7.75487L10 1Z" fill="#017a31"/></g><rect x="414.59999999999997" y="0" width="69.1" height="69.1" fill="#292929"/><rect x="414.6" y="0" width="34.55" height="34.55" fill="#017a31"/><polygon points="414.6,0 449.15000000000003,34.55 414.6,34.55" fill="#017a31"/><rect x="449.15" y="0" width="34.55" height="34.55" fill="#123524"/><path d="M 449.15 0 A 34.55 34.55 0 0 1  483.7 34.55 L 449.15 0 A 34.55 34.55 0 0 0 483.7 34.55" fill="#017a31"/><rect x="414.6" y="34.55" width="34.55" height="34.55" fill="#017a31"/><polygon points="414.6,34.55 449.15000000000003,34.55 449.15000000000003,69.1" fill="#123524"/><rect x="449.15" y="34.55" width="34.55" height="34.55" fill="#017a31"/><rect x="449.15" y="34.55" width="34.55" height="34.55" fill="#017a31"/><rect x="483.69999999999993" y="0" width="69.1" height="69.1" fill="#292929"/><rect x="483.7" y="0" width="34.55" height="34.55" fill="#017a31"/><path d="M 483.7 0 A 34.55 34.55 0 0 1 518.25 34.55 L 483.7 34.55" fill="#123524"/><rect x="518.25" y="0" width="34.55" height="34.55" fill="#123524"/><rect x="518.25" y="0" width="34.55" height="34.55" fill="#017a31"/><rect x="483.7" y="34.55" width="34.55" height="34.55" fill="#123524"/><path d="M 483.7 34.55 A 34.55 34.55 0 0 1 518.25 69.1 L 483.7 69.1" fill="#017a31"/><rect x="518.25" y="34.55" width="34.55" height="34.55" fill="#017a31"/><g transform="translate(518.25,34.55) scale(1.7274999999999998) rotate(0)"><path d="M10 1L12.2451 7.90983H19.5106L13.6327 12.1803L15.8779 19.0902L10 14.8197L4.12215 19.0902L6.36729 12.1803L0.489441 7.90983H7.75487L10 1Z" fill="#123524"/></g><rect x="552.8" y="0" width="69.1" height="69.1" fill="#292929"/><rect x="552.8" y="0" width="34.55" height="34.55" fill="#017a31"/><path d="M 552.8 0 A 34.55 34.55 0 0 1  587.3499999999999 34.55 L 552.8 0 A 34.55 34.55 0 0 0 587.3499999999999 34.55" fill="#017a31"/><rect x="587.35" y="0" width="34.55" height="34.55" fill="#123524"/><polygon points="587.35,0 621.9,0 621.9,34.55" fill="#017a31"/><rect x="552.8" y="34.55" width="34.55" height="34.55" fill="#017a31"/><path d="M 552.8 34.55 A 34.55 34.55 0 0 1 587.3499999999999 69.1 L 552.8 69.1" fill="#123524"/><rect x="587.35" y="34.55" width="34.55" height="34.55" fill="#123524"/><g transform="translate(587.35,34.55) scale(1.7274999999999998) rotate(0)"><path d="M10 1L12.2451 7.90983H19.5106L13.6327 12.1803L15.8779 19.0902L10 14.8197L4.12215 19.0902L6.36729 12.1803L0.489441 7.90983H7.75487L10 1Z" fill="#017a31"/></g><rect x="621.9" y="0" width="69.1" height="69.1" fill="#292929"/><rect x="621.9" y="0" width="34.55" height="34.55" fill="#123524"/><g transform="translate(621.9,0) scale(1.7274999999999998) rotate(0)"><path d="M10 1L12.2451 7.90983H19.5106L13.6327 12.1803L15.8779 19.0902L10 14.8197L4.12215 19.0902L6.36729 12.1803L0.489441 7.90983H7.75487L10 1Z" fill="#123524"/></g><rect x="656.45" y="0" width="34.55" height="34.55" fill="#017a31"/><polygon points="656.45,0 691,0 656.45,34.55" fill="#017a31"/><rect x="621.9" y="34.55" width="34.55" height="34.55" fill="#017a31"/><rect x="621.9" y="34.55" width="34.55" height="34.55" fill="#017a31"/><rect x="656.45" y="34.55" width="34.55" height="34.55" fill="#017a31"/><g transform="translate(656.45,34.55) scale(1.7274999999999998) rotate(0)"><path d="M10 1L12.2451 7.90983H19.5106L13.6327 12.1803L15.8779 19.0902L10 14.8197L4.12215 19.0902L6.36729 12.1803L0.489441 7.90983H7.75487L10 1Z" fill="#017a31"/></g><rect x="691" y="0" width="69.1" height="69.1" fill="#292929"/><rect x="691" y="0" width="34.55" height="34.55" fill="#123524"/><g transform="translate(691,0) scale(1.7274999999999998) rotate(0)"><path d="M10 1L12.2451 7.90983H19.5106L13.6327 12.1803L15.8779 19.0902L10 14.8197L4.12215 19.0902L6.36729 12.1803L0.489441 7.90983H7.75487L10 1Z" fill="#123524"/></g><rect x="725.55" y="0" width="34.55" height="34.55" fill="#123524"/><g transform="translate(725.55,0) scale(1.7274999999999998) rotate(0)"><path d="M10 1L12.2451 7.90983H19.5106L13.6327 12.1803L15.8779 19.0902L10 14.8197L4.12215 19.0902L6.36729 12.1803L0.489441 7.90983H7.75487L10 1Z" fill="#123524"/></g><rect x="691" y="34.55" width="34.55" height="34.55" fill="#123524"/><polygon points="691,34.55 725.55,34.55 725.55,69.1" fill="#123524"/><rect x="725.55" y="34.55" width="34.55" height="34.55" fill="#123524"/><polygon points="725.55,34.55 760.0999999999999,69.1 725.55,69.1" fill="#123524"/><rect x="760.0999999999999" y="0" width="69.1" height="69.1" fill="#292929"/><rect x="760.1" y="0" width="34.55" height="34.55" fill="#123524"/><path d="M 760.1 0 A 34.55 34.55 0 0 1 794.65 34.55 L 760.1 34.55" fill="#123524"/><rect x="794.65" y="0" width="34.55" height="34.55" fill="#123524"/><rect x="794.65" y="0" width="34.55" height="34.55" fill="#123524"/><rect x="760.1" y="34.55" width="34.55" height="34.55" fill="#123524"/><path d="M 760.1 69.1 A 34.55 34.55 0 0 1  794.65 34.55 L 760.1 69.1 A 34.55 34.55 0 0 0 794.65 34.55" fill="#123524"/><rect x="794.65" y="34.55" width="34.55" height="34.55" fill="#017a31"/><g transform="translate(794.65,34.55) scale(1.7274999999999998) rotate(0)"><path d="M10 1L12.2451 7.90983H19.5106L13.6327 12.1803L15.8779 19.0902L10 14.8197L4.12215 19.0902L6.36729 12.1803L0.489441 7.90983H7.75487L10 1Z" fill="#123524"/></g><rect x="829.1999999999999" y="0" width="69.1" height="69.1" fill="#292929"/><rect x="829.2" y="0" width="34.55" height="34.55" fill="#017a31"/><polygon points="863.75,0 863.75,34.55 829.2,34.55" fill="#017a31"/><rect x="863.75" y="0" width="34.55" height="34.55" fill="#017a31"/><rect x="863.75" y="0" width="34.55" height="34.55" fill="#017a31"/><rect x="829.2" y="34.55" width="34.55" height="34.55" fill="#017a31"/><path d="M 829.2 34.55 A 34.55 34.55 0 0 0 863.75 69.1 L 863.75 34.55" fill="#017a31"/><rect x="863.75" y="34.55" width="34.55" height="34.55" fill="#123524"/><polygon points="863.75,34.55 898.3,34.55 898.3,69.1" fill="#123524"/><rect x="898.3" y="0" width="69.1" height="69.1" fill="#123524"/><rect x="898.3" y="0" width="69.1" height="69.1" fill="#017a31"/><rect x="967.3999999999999" y="0" width="69.1" height="69.1" fill="#292929"/><rect x="967.4" y="0" width="34.55" height="34.55" fill="#017a31"/><polygon points="1001.9499999999999,0 1001.9499999999999,34.55 967.4,34.55" fill="#123524"/><rect x="1001.95" y="0" width="34.55" height="34.55" fill="#017a31"/><path d="M 1001.95 34.55 A 34.55 34.55 0 0 0 1036.5 0 L 1001.95 0" fill="#123524"/><rect x="967.4" y="34.55" width="34.55" height="34.55" fill="#123524"/><rect x="967.4" y="34.55" width="34.55" height="34.55" fill="#017a31"/><rect x="1001.95" y="34.55" width="34.55" height="34.55" fill="#123524"/><rect x="1001.95" y="34.55" width="34.55" height="34.55" fill="#123524"/><rect x="1036.5" y="0" width="69.1" height="69.1" fill="#017a31"/><g transform="translate(1036.5,0) scale(3.4549999999999996) rotate(0)"><path d="M10 1L12.2451 7.90983H19.5106L13.6327 12.1803L15.8779 19.0902L10 14.8197L4.12215 19.0902L6.36729 12.1803L0.489441 7.90983H7.75487L10 1Z" fill="#123524"/></g><rect x="0" y="69.1" width="69.1" height="69.1" fill="#292929"/><rect x="0" y="69.1" width="34.55" height="34.55" fill="#017a31"/><rect x="0" y="69.1" width="34.55" height="34.55" fill="#017a31"/><rect x="34.55" y="69.1" width="34.55" height="34.55" fill="#017a31"/><rect x="34.55" y="69.1" width="34.55" height="34.55" fill="#017a31"/><rect x="0" y="103.65" width="34.55" height="34.55" fill="#123524"/><polygon points="0,103.65 34.55,103.65 0,138.2" fill="#017a31"/><rect x="34.55" y="103.65" width="34.55" height="34.55" fill="#017a31"/><rect x="34.55" y="103.65" width="34.55" height="34.55" fill="#017a31"/><rect x="69.1" y="69.1" width="69.1" height="69.1" fill="#017a31"/><path d="M 69.1 69.1 A 69.1 69.1 0 0 1  138.2 138.2 L 69.1 69.1 A 69.1 69.1 0 0 0 138.2 138.2" fill="#123524"/><rect x="138.2" y="69.1" width="69.1" height="69.1" fill="#123524"/><g transform="translate(138.2,69.1) scale(3.4549999999999996) rotate(0)"><path d="M10 1L12.2451 7.90983H19.5106L13.6327 12.1803L15.8779 19.0902L10 14.8197L4.12215 19.0902L6.36729 12.1803L0.489441 7.90983H7.75487L10 1Z" fill="#123524"/></g><rect x="207.29999999999998" y="69.1" width="69.1" height="69.1" fill="#292929"/><rect x="207.3" y="69.1" width="34.55" height="34.55" fill="#123524"/><polygon points="207.3,69.1 241.85000000000002,69.1 241.85000000000002,103.64999999999999" fill="#017a31"/><rect x="241.85" y="69.1" width="34.55" height="34.55" fill="#123524"/><g transform="translate(241.85,69.1) scale(1.7274999999999998) rotate(0)"><path d="M10 1L12.2451 7.90983H19.5106L13.6327 12.1803L15.8779 19.0902L10 14.8197L4.12215 19.0902L6.36729 12.1803L0.489441 7.90983H7.75487L10 1Z" fill="#123524"/></g><rect x="207.3" y="103.65" width="34.55" height="34.55" fill="#123524"/><path d="M 207.3 103.65 A 34.55 34.55 0 0 0 241.85000000000002 138.2 L 241.85000000000002 103.65" fill="#017a31"/><rect x="241.85" y="103.65" width="34.55" height="34.55" fill="#123524"/><path d="M 241.85 103.65 A 34.55 34.55 0 0 0 276.4 138.2 L 276.4 103.65" fill="#123524"/><rect x="276.4" y="69.1" width="69.1" height="69.1" fill="#123524"/><path d="M 276.4 138.2 A 69.1 69.1 0 0 0 345.5 69.1 L 276.4 69.1" fill="#123524"/><rect x="345.5" y="69.1" width="69.1" height="69.1" fill="#292929"/><rect x="345.5" y="69.1" width="34.55" height="34.55" fill="#017a31"/><path d="M 345.5 103.64999999999999 A 34.55 34.55 0 0 1  380.05 69.1 L 380.05 103.64999999999999" fill="#017a31"/><rect x="380.05" y="69.1" width="34.55" height="34.55" fill="#017a31"/><polygon points="380.05,69.1 414.6,69.1 414.6,103.64999999999999" fill="#123524"/><rect x="345.5" y="103.65" width="34.55" height="34.55" fill="#123524"/><g transform="translate(345.5,103.65) scale(1.7274999999999998) rotate(0)"><path d="M10 1L12.2451 7.90983H19.5106L13.6327 12.1803L15.8779 19.0902L10 14.8197L4.12215 19.0902L6.36729 12.1803L0.489441 7.90983H7.75487L10 1Z" fill="#123524"/></g><rect x="380.05" y="103.65" width="34.55" height="34.55" fill="#017a31"/><polygon points="380.05,103.65 414.6,103.65 380.05,138.2" fill="#123524"/><rect x="414.59999999999997" y="69.1" width="69.1" height="69.1" fill="#292929"/><rect x="414.6" y="69.1" width="34.55" height="34.55" fill="#017a31"/><path d="M 414.6 103.64999999999999 A 34.55 34.55 0 0 0 449.15000000000003 69.1 L 414.6 69.1" fill="#017a31"/><rect x="449.15" y="69.1" width="34.55" height="34.55" fill="#017a31"/><rect x="449.15" y="69.1" width="34.55" height="34.55" fill="#017a31"/><rect x="414.6" y="103.65" width="34.55" height="34.55" fill="#017a31"/><rect x="414.6" y="103.65" width="34.55" height="34.55" fill="#017a31"/><rect x="449.15" y="103.65" width="34.55" height="34.55" fill="#123524"/><rect x="449.15" y="103.65" width="34.55" height="34.55" fill="#123524"/><rect x="483.69999999999993" y="69.1" width="69.1" height="69.1" fill="#292929"/><rect x="483.7" y="69.1" width="34.55" height="34.55" fill="#123524"/><rect x="483.7" y="69.1" width="34.55" height="34.55" fill="#017a31"/><rect x="518.25" y="69.1" width="34.55" height="34.55" fill="#017a31"/><polygon points="518.25,69.1 552.8,69.1 518.25,103.64999999999999" fill="#123524"/><rect x="483.7" y="103.65" width="34.55" height="34.55" fill="#123524"/><g transform="translate(483.7,103.65) scale(1.7274999999999998) rotate(0)"><path d="M10 1L12.2451 7.90983H19.5106L13.6327 12.1803L15.8779 19.0902L10 14.8197L4.12215 19.0902L6.36729 12.1803L0.489441 7.90983H7.75487L10 1Z" fill="#017a31"/></g><rect x="518.25" y="103.65" width="34.55" height="34.55" fill="#123524"/><path d="M 518.25 103.65 A 34.55 34.55 0 0 1  552.8 138.2 L 518.25 103.65 A 34.55 34.55 0 0 0 552.8 138.2" fill="#017a31"/><rect x="552.8" y="69.1" width="69.1" height="69.1" fill="#292929"/><rect x="552.8" y="69.1" width="34.55" height="34.55" fill="#017a31"/><polygon points="552.8,69.1 587.3499999999999,69.1 587.3499999999999,103.64999999999999" fill="#123524"/><rect x="587.35" y="69.1" width="34.55" height="34.55" fill="#017a31"/><g transform="translate(587.35,69.1) scale(1.7274999999999998) rotate(0)"><path d="M10 1L12.2451 7.90983H19.5106L13.6327 12.1803L15.8779 19.0902L10 14.8197L4.12215 19.0902L6.36729 12.1803L0.489441 7.90983H7.75487L10 1Z" fill="#123524"/></g><rect x="552.8" y="103.65" width="34.55" height="34.55" fill="#123524"/><polygon points="552.8,103.65 587.3499999999999,103.65 552.8,138.2" fill="#123524"/><rect x="587.35" y="103.65" width="34.55" height="34.55" fill="#017a31"/><rect x="587.35" y="103.65" width="34.55" height="34.55" fill="#123524"/><rect x="621.9" y="69.1" width="69.1" height="69.1" fill="#292929"/><rect x="621.9" y="69.1" width="34.55" height="34.55" fill="#123524"/><rect x="621.9" y="69.1" width="34.55" height="34.55" fill="#017a31"/><rect x="656.45" y="69.1" width="34.55" height="34.55" fill="#017a31"/><polygon points="691,69.1 691,103.64999999999999 656.45,103.64999999999999" fill="#123524"/><rect x="621.9" y="103.65" width="34.55" height="34.55" fill="#017a31"/><polygon points="656.4499999999999,103.65 656.4499999999999,138.2 621.9,138.2" fill="#017a31"/><rect x="656.45" y="103.65" width="34.55" height="34.55" fill="#123524"/><path d="M 656.45 138.2 A 34.55 34.55 0 0 1  691 103.65 L 691 138.2" fill="#123524"/><rect x="691" y="69.1" width="69.1" height="69.1" fill="#123524"/><path d="M 691 138.2 A 69.1 69.1 0 0 1  760.1 69.1 L 760.1 138.2" fill="#123524"/><rect x="760.0999999999999" y="69.1" width="69.1" height="69.1" fill="#292929"/><rect x="760.1" y="69.1" width="34.55" height="34.55" fill="#123524"/><path d="M 760.1 103.64999999999999 A 34.55 34.55 0 0 1  794.65 69.1 L 760.1 103.64999999999999 A 34.55 34.55 0 0 0 794.65 69.1" fill="#123524"/><rect x="794.65" y="69.1" width="34.55" height="34.55" fill="#123524"/><g transform="translate(794.65,69.1) scale(1.7274999999999998) rotate(0)"><path d="M10 1L12.2451 7.90983H19.5106L13.6327 12.1803L15.8779 19.0902L10 14.8197L4.12215 19.0902L6.36729 12.1803L0.489441 7.90983H7.75487L10 1Z" fill="#123524"/></g><rect x="760.1" y="103.65" width="34.55" height="34.55" fill="#123524"/><polygon points="794.65,103.65 794.65,138.2 760.1,138.2" fill="#123524"/><rect x="794.65" y="103.65" width="34.55" height="34.55" fill="#123524"/><polygon points="794.65,103.65 829.1999999999999,103.65 794.65,138.2" fill="#017a31"/><rect x="829.2" y="69.1" width="69.1" height="69.1" fill="#123524"/><rect x="829.2" y="69.1" width="69.1" height="69.1" fill="#017a31"/><rect x="898.3" y="69.1" width="69.1" height="69.1" fill="#292929"/><rect x="898.3" y="69.1" width="34.55" height="34.55" fill="#123524"/><polygon points="932.8499999999999,69.1 932.8499999999999,103.64999999999999 898.3,103.64999999999999" fill="#017a31"/><rect x="932.85" y="69.1" width="34.55" height="34.55" fill="#017a31"/><path d="M 932.85 69.1 A 34.55 34.55 0 0 1  967.4 103.64999999999999 L 932.85 69.1 A 34.55 34.55 0 0 0 967.4 103.64999999999999" fill="#017a31"/><rect x="898.3" y="103.65" width="34.55" height="34.55" fill="#123524"/><g transform="translate(898.3,103.65) scale(1.7274999999999998) rotate(0)"><path d="M10 1L12.2451 7.90983H19.5106L13.6327 12.1803L15.8779 19.0902L10 14.8197L4.12215 19.0902L6.36729 12.1803L0.489441 7.90983H7.75487L10 1Z" fill="#017a31"/></g><rect x="932.85" y="103.65" width="34.55" height="34.55" fill="#123524"/><path d="M 932.85 103.65 A 34.55 34.55 0 0 1 967.4 138.2 L 932.85 138.2" fill="#017a31"/><rect x="967.3999999999999" y="69.1" width="69.1" height="69.1" fill="#292929"/><rect x="967.4" y="69.1" width="34.55" height="34.55" fill="#123524"/><g transform="translate(967.4,69.1) scale(1.7274999999999998) rotate(0)"><path d="M10 1L12.2451 7.90983H19.5106L13.6327 12.1803L15.8779 19.0902L10 14.8197L4.12215 19.0902L6.36729 12.1803L0.489441 7.90983H7.75487L10 1Z" fill="#123524"/></g><rect x="1001.95" y="69.1" width="34.55" height="34.55" fill="#123524"/><g transform="translate(1001.95,69.1) scale(1.7274999999999998) rotate(0)"><path d="M10 1L12.2451 7.90983H19.5106L13.6327 12.1803L15.8779 19.0902L10 14.8197L4.12215 19.0902L6.36729 12.1803L0.489441 7.90983H7.75487L10 1Z" fill="#123524"/></g><rect x="967.4" y="103.65" width="34.55" height="34.55" fill="#123524"/><rect x="967.4" y="103.65" width="34.55" height="34.55" fill="#123524"/><rect x="1001.95" y="103.65" width="34.55" height="34.55" fill="#017a31"/><polygon points="1001.95,103.65 1036.5,103.65 1001.95,138.2" fill="#017a31"/><rect x="1036.5" y="69.1" width="69.1" height="69.1" fill="#017a31"/><path d="M 1036.5 138.2 A 69.1 69.1 0 0 0 1105.6 69.1 L 1036.5 69.1" fill="#017a31"/><rect x="0" y="138.2" width="69.1" height="69.1" fill="#017a31"/><polygon points="0,138.2 69.1,138.2 69.1,207.29999999999998" fill="#123524"/><rect x="69.1" y="138.2" width="69.1" height="69.1" fill="#292929"/><rect x="69.1" y="138.2" width="34.55" height="34.55" fill="#123524"/><polygon points="69.1,138.2 103.64999999999999,172.75 69.1,172.75" fill="#017a31"/><rect x="103.65" y="138.2" width="34.55" height="34.55" fill="#123524"/><path d="M 103.65 172.75 A 34.55 34.55 0 0 1  138.2 138.2 L 103.65 172.75 A 34.55 34.55 0 0 0 138.2 138.2" fill="#017a31"/><rect x="69.1" y="172.75" width="34.55" height="34.55" fill="#017a31"/><path d="M 69.1 207.3 A 34.55 34.55 0 0 1  103.64999999999999 172.75 L 103.64999999999999 207.3" fill="#123524"/><rect x="103.65" y="172.75" width="34.55" height="34.55" fill="#123524"/><path d="M 103.65 207.3 A 34.55 34.55 0 0 1  138.2 172.75 L 138.2 207.3" fill="#017a31"/><rect x="138.2" y="138.2" width="69.1" height="69.1" fill="#123524"/><rect x="138.2" y="138.2" width="69.1" height="69.1" fill="#017a31"/><rect x="207.29999999999998" y="138.2" width="69.1" height="69.1" fill="#292929"/><rect x="207.3" y="138.2" width="34.55" height="34.55" fill="#123524"/><g transform="translate(207.3,138.2) scale(1.7274999999999998) rotate(0)"><path d="M10 1L12.2451 7.90983H19.5106L13.6327 12.1803L15.8779 19.0902L10 14.8197L4.12215 19.0902L6.36729 12.1803L0.489441 7.90983H7.75487L10 1Z" fill="#123524"/></g><rect x="241.85" y="138.2" width="34.55" height="34.55" fill="#017a31"/><rect x="241.85" y="138.2" width="34.55" height="34.55" fill="#017a31"/><rect x="207.3" y="172.75" width="34.55" height="34.55" fill="#123524"/><g transform="translate(207.3,172.75) scale(1.7274999999999998) rotate(0)"><path d="M10 1L12.2451 7.90983H19.5106L13.6327 12.1803L15.8779 19.0902L10 14.8197L4.12215 19.0902L6.36729 12.1803L0.489441 7.90983H7.75487L10 1Z" fill="#123524"/></g><rect x="241.85" y="172.75" width="34.55" height="34.55" fill="#017a31"/><path d="M 241.85 207.3 A 34.55 34.55 0 0 1  276.4 172.75 L 241.85 207.3 A 34.55 34.55 0 0 0 276.4 172.75" fill="#123524"/><rect x="276.4" y="138.2" width="69.1" height="69.1" fill="#123524"/><g transform="translate(276.4,138.2) scale(3.4549999999999996) rotate(0)"><path d="M10 1L12.2451 7.90983H19.5106L13.6327 12.1803L15.8779 19.0902L10 14.8197L4.12215 19.0902L6.36729 12.1803L0.489441 7.90983H7.75487L10 1Z" fill="#017a31"/></g><rect x="345.5" y="138.2" width="69.1" height="69.1" fill="#123524"/><path d="M 345.5 138.2 A 69.1 69.1 0 0 0 414.6 207.29999999999998 L 414.6 138.2" fill="#123524"/><rect x="414.59999999999997" y="138.2" width="69.1" height="69.1" fill="#292929"/><rect x="414.6" y="138.2" width="34.55" height="34.55" fill="#017a31"/><polygon points="449.15000000000003,138.2 449.15000000000003,172.75 414.6,172.75" fill="#017a31"/><rect x="449.15" y="138.2" width="34.55" height="34.55" fill="#017a31"/><g transform="translate(449.15,138.2) scale(1.7274999999999998) rotate(0)"><path d="M10 1L12.2451 7.90983H19.5106L13.6327 12.1803L15.8779 19.0902L10 14.8197L4.12215 19.0902L6.36729 12.1803L0.489441 7.90983H7.75487L10 1Z" fill="#123524"/></g><rect x="414.6" y="172.75" width="34.55" height="34.55" fill="#123524"/><path d="M 414.6 172.75 A 34.55 34.55 0 0 0 449.15000000000003 207.3 L 449.15000000000003 172.75" fill="#017a31"/><rect x="449.15" y="172.75" width="34.55" height="34.55" fill="#017a31"/><g transform="translate(449.15,172.75) scale(1.7274999999999998) rotate(0)"><path d="M10 1L12.2451 7.90983H19.5106L13.6327 12.1803L15.8779 19.0902L10 14.8197L4.12215 19.0902L6.36729 12.1803L0.489441 7.90983H7.75487L10 1Z" fill="#123524"/></g><rect x="483.69999999999993" y="138.2" width="69.1" height="69.1" fill="#292929"/><rect x="483.7" y="138.2" width="34.55" height="34.55" fill="#123524"/><rect x="483.7" y="138.2" width="34.55" height="34.55" fill="#017a31"/><rect x="518.25" y="138.2" width="34.55" height="34.55" fill="#123524"/><rect x="518.25" y="138.2" width="34.55" height="34.55" fill="#017a31"/><rect x="483.7" y="172.75" width="34.55" height="34.55" fill="#123524"/><polygon points="483.7,172.75 518.25,172.75 483.7,207.3" fill="#017a31"/><rect x="518.25" y="172.75" width="34.55" height="34.55" fill="#017a31"/><path d="M 518.25 172.75 A 34.55 34.55 0 0 0 552.8 207.3 L 552.8 172.75" fill="#017a31"/><rect x="552.8" y="138.2" width="69.1" height="69.1" fill="#292929"/><rect x="552.8" y="138.2" width="34.55" height="34.55" fill="#123524"/><rect x="552.8" y="138.2" width="34.55" height="34.55" fill="#017a31"/><rect x="587.35" y="138.2" width="34.55" height="34.55" fill="#123524"/><rect x="587.35" y="138.2" width="34.55" height="34.55" fill="#017a31"/><rect x="552.8" y="172.75" width="34.55" height="34.55" fill="#123524"/><g transform="translate(552.8,172.75) scale(1.7274999999999998) rotate(0)"><path d="M10 1L12.2451 7.90983H19.5106L13.6327 12.1803L15.8779 19.0902L10 14.8197L4.12215 19.0902L6.36729 12.1803L0.489441 7.90983H7.75487L10 1Z" fill="#017a31"/></g><rect x="587.35" y="172.75" width="34.55" height="34.55" fill="#123524"/><polygon points="587.35,172.75 621.9,172.75 587.35,207.3" fill="#123524"/><rect x="621.9" y="138.2" width="69.1" height="69.1" fill="#123524"/><g transform="translate(621.9,138.2) scale(3.4549999999999996) rotate(0)"><path d="M10 1L12.2451 7.90983H19.5106L13.6327 12.1803L15.8779 19.0902L10 14.8197L4.12215 19.0902L6.36729 12.1803L0.489441 7.90983H7.75487L10 1Z" fill="#017a31"/></g><rect x="691" y="138.2" width="69.1" height="69.1" fill="#292929"/><rect x="691" y="138.2" width="34.55" height="34.55" fill="#123524"/><path d="M 691 138.2 A 34.55 34.55 0 0 1  725.55 172.75 L 691 138.2 A 34.55 34.55 0 0 0 725.55 172.75" fill="#123524"/><rect x="725.55" y="138.2" width="34.55" height="34.55" fill="#123524"/><g transform="translate(725.55,138.2) scale(1.7274999999999998) rotate(0)"><path d="M10 1L12.2451 7.90983H19.5106L13.6327 12.1803L15.8779 19.0902L10 14.8197L4.12215 19.0902L6.36729 12.1803L0.489441 7.90983H7.75487L10 1Z" fill="#123524"/></g><rect x="691" y="172.75" width="34.55" height="34.55" fill="#123524"/><rect x="691" y="172.75" width="34.55" height="34.55" fill="#123524"/><rect x="725.55" y="172.75" width="34.55" height="34.55" fill="#123524"/><path d="M 725.55 207.3 A 34.55 34.55 0 0 0 760.0999999999999 172.75 L 725.55 172.75" fill="#017a31"/><rect x="760.1" y="138.2" width="69.1" height="69.1" fill="#123524"/><path d="M 760.1 207.29999999999998 A 69.1 69.1 0 0 1  829.2 138.2 L 829.2 207.29999999999998" fill="#017a31"/><rect x="829.2" y="138.2" width="69.1" height="69.1" fill="#017a31"/><polygon points="829.2,138.2 898.3000000000001,138.2 898.3000000000001,207.29999999999998" fill="#123524"/><rect x="898.3" y="138.2" width="69.1" height="69.1" fill="#292929"/><rect x="898.3" y="138.2" width="34.55" height="34.55" fill="#017a31"/><g transform="translate(898.3,138.2) scale(1.7274999999999998) rotate(0)"><path d="M10 1L12.2451 7.90983H19.5106L13.6327 12.1803L15.8779 19.0902L10 14.8197L4.12215 19.0902L6.36729 12.1803L0.489441 7.90983H7.75487L10 1Z" fill="#123524"/></g><rect x="932.85" y="138.2" width="34.55" height="34.55" fill="#123524"/><path d="M 932.85 172.75 A 34.55 34.55 0 0 1  967.4 138.2 L 967.4 172.75" fill="#017a31"/><rect x="898.3" y="172.75" width="34.55" height="34.55" fill="#017a31"/><path d="M 898.3 172.75 A 34.55 34.55 0 0 1  932.8499999999999 207.3 L 898.3 172.75 A 34.55 34.55 0 0 0 932.8499999999999 207.3" fill="#017a31"/><rect x="932.85" y="172.75" width="34.55" height="34.55" fill="#017a31"/><polygon points="967.4,172.75 967.4,207.3 932.85,207.3" fill="#017a31"/><rect x="967.3999999999999" y="138.2" width="69.1" height="69.1" fill="#292929"/><rect x="967.4" y="138.2" width="34.55" height="34.55" fill="#123524"/><g transform="translate(967.4,138.2) scale(1.7274999999999998) rotate(0)"><path d="M10 1L12.2451 7.90983H19.5106L13.6327 12.1803L15.8779 19.0902L10 14.8197L4.12215 19.0902L6.36729 12.1803L0.489441 7.90983H7.75487L10 1Z" fill="#123524"/></g><rect x="1001.95" y="138.2" width="34.55" height="34.55" fill="#123524"/><rect x="1001.95" y="138.2" width="34.55" height="34.55" fill="#017a31"/><rect x="967.4" y="172.75" width="34.55" height="34.55" fill="#017a31"/><g transform="translate(967.4,172.75) scale(1.7274999999999998) rotate(0)"><path d="M10 1L12.2451 7.90983H19.5106L13.6327 12.1803L15.8779 19.0902L10 14.8197L4.12215 19.0902L6.36729 12.1803L0.489441 7.90983H7.75487L10 1Z" fill="#017a31"/></g><rect x="1001.95" y="172.75" width="34.55" height="34.55" fill="#123524"/><rect x="1001.95" y="172.75" width="34.55" height="34.55" fill="#123524"/><rect x="1036.5" y="138.2" width="69.1" height="69.1" fill="#017a31"/><g transform="translate(1036.5,138.2) scale(3.4549999999999996) rotate(0)"><path d="M10 1L12.2451 7.90983H19.5106L13.6327 12.1803L15.8779 19.0902L10 14.8197L4.12215 19.0902L6.36729 12.1803L0.489441 7.90983H7.75487L10 1Z" fill="#123524"/></g><rect x="0" y="207.3" width="69.1" height="69.1" fill="#123524"/><g transform="translate(0,207.3) scale(3.4549999999999996) rotate(0)"><path d="M10 1L12.2451 7.90983H19.5106L13.6327 12.1803L15.8779 19.0902L10 14.8197L4.12215 19.0902L6.36729 12.1803L0.489441 7.90983H7.75487L10 1Z" fill="#123524"/></g><rect x="69.1" y="207.3" width="69.1" height="69.1" fill="#017a31"/><g transform="translate(69.1,207.3) scale(3.4549999999999996) rotate(0)"><path d="M10 1L12.2451 7.90983H19.5106L13.6327 12.1803L15.8779 19.0902L10 14.8197L4.12215 19.0902L6.36729 12.1803L0.489441 7.90983H7.75487L10 1Z" fill="#017a31"/></g><rect x="138.2" y="207.29999999999998" width="69.1" height="69.1" fill="#292929"/><rect x="138.2" y="207.3" width="34.55" height="34.55" fill="#017a31"/><g transform="translate(138.2,207.3) scale(1.7274999999999998) rotate(0)"><path d="M10 1L12.2451 7.90983H19.5106L13.6327 12.1803L15.8779 19.0902L10 14.8197L4.12215 19.0902L6.36729 12.1803L0.489441 7.90983H7.75487L10 1Z" fill="#017a31"/></g><rect x="172.75" y="207.3" width="34.55" height="34.55" fill="#123524"/><path d="M 172.75 241.85000000000002 A 34.55 34.55 0 0 0 207.3 207.3 L 172.75 207.3" fill="#123524"/><rect x="138.2" y="241.85" width="34.55" height="34.55" fill="#017a31"/><g transform="translate(138.2,241.85) scale(1.7274999999999998) rotate(0)"><path d="M10 1L12.2451 7.90983H19.5106L13.6327 12.1803L15.8779 19.0902L10 14.8197L4.12215 19.0902L6.36729 12.1803L0.489441 7.90983H7.75487L10 1Z" fill="#017a31"/></g><rect x="172.75" y="241.85" width="34.55" height="34.55" fill="#017a31"/><g transform="translate(172.75,241.85) scale(1.7274999999999998) rotate(0)"><path d="M10 1L12.2451 7.90983H19.5106L13.6327 12.1803L15.8779 19.0902L10 14.8197L4.12215 19.0902L6.36729 12.1803L0.489441 7.90983H7.75487L10 1Z" fill="#123524"/></g><rect x="207.29999999999998" y="207.29999999999998" width="69.1" height="69.1" fill="#292929"/><rect x="207.3" y="207.3" width="34.55" height="34.55" fill="#123524"/><rect x="207.3" y="207.3" width="34.55" height="34.55" fill="#017a31"/><rect x="241.85" y="207.3" width="34.55" height="34.55" fill="#123524"/><rect x="241.85" y="207.3" width="34.55" height="34.55" fill="#017a31"/><rect x="207.3" y="241.85" width="34.55" height="34.55" fill="#017a31"/><polygon points="241.85000000000002,241.85 241.85000000000002,276.4 207.3,276.4" fill="#017a31"/><rect x="241.85" y="241.85" width="34.55" height="34.55" fill="#123524"/><polygon points="241.85,241.85 276.4,241.85 276.4,276.4" fill="#123524"/><rect x="276.4" y="207.3" width="69.1" height="69.1" fill="#017a31"/><polygon points="276.4,207.3 345.5,276.4 276.4,276.4" fill="#123524"/><rect x="345.5" y="207.29999999999998" width="69.1" height="69.1" fill="#292929"/><rect x="345.5" y="207.3" width="34.55" height="34.55" fill="#017a31"/><polygon points="345.5,207.3 380.05,207.3 380.05,241.85000000000002" fill="#017a31"/><rect x="380.05" y="207.3" width="34.55" height="34.55" fill="#017a31"/><rect x="380.05" y="207.3" width="34.55" height="34.55" fill="#123524"/><rect x="345.5" y="241.85" width="34.55" height="34.55" fill="#017a31"/><polygon points="345.5,241.85 380.05,241.85 345.5,276.4" fill="#123524"/><rect x="380.05" y="241.85" width="34.55" height="34.55" fill="#123524"/><path d="M 380.05 276.4 A 34.55 34.55 0 0 1  414.6 241.85 L 380.05 276.4 A 34.55 34.55 0 0 0 414.6 241.85" fill="#017a31"/><rect x="414.59999999999997" y="207.29999999999998" width="69.1" height="69.1" fill="#292929"/><rect x="414.6" y="207.3" width="34.55" height="34.55" fill="#017a31"/><path d="M 414.6 207.3 A 34.55 34.55 0 0 1 449.15000000000003 241.85000000000002 L 414.6 241.85000000000002" fill="#017a31"/><rect x="449.15" y="207.3" width="34.55" height="34.55" fill="#017a31"/><rect x="449.15" y="207.3" width="34.55" height="34.55" fill="#123524"/><rect x="414.6" y="241.85" width="34.55" height="34.55" fill="#123524"/><g transform="translate(414.6,241.85) scale(1.7274999999999998) rotate(0)"><path d="M10 1L12.2451 7.90983H19.5106L13.6327 12.1803L15.8779 19.0902L10 14.8197L4.12215 19.0902L6.36729 12.1803L0.489441 7.90983H7.75487L10 1Z" fill="#123524"/></g><rect x="449.15" y="241.85" width="34.55" height="34.55" fill="#017a31"/><path d="M 449.15 276.4 A 34.55 34.55 0 0 1  483.7 241.85 L 449.15 276.4 A 34.55 34.55 0 0 0 483.7 241.85" fill="#017a31"/><rect x="483.7" y="207.3" width="69.1" height="69.1" fill="#017a31"/><path d="M 483.7 276.4 A 69.1 69.1 0 0 0 552.8 207.3 L 483.7 207.3" fill="#123524"/><rect x="552.8" y="207.29999999999998" width="69.1" height="69.1" fill="#292929"/><rect x="552.8" y="207.3" width="34.55" height="34.55" fill="#123524"/><rect x="552.8" y="207.3" width="34.55" height="34.55" fill="#017a31"/><rect x="587.35" y="207.3" width="34.55" height="34.55" fill="#017a31"/><g transform="translate(587.35,207.3) scale(1.7274999999999998) rotate(0)"><path d="M10 1L12.2451 7.90983H19.5106L13.6327 12.1803L15.8779 19.0902L10 14.8197L4.12215 19.0902L6.36729 12.1803L0.489441 7.90983H7.75487L10 1Z" fill="#123524"/></g><rect x="552.8" y="241.85" width="34.55" height="34.55" fill="#017a31"/><g transform="translate(552.8,241.85) scale(1.7274999999999998) rotate(0)"><path d="M10 1L12.2451 7.90983H19.5106L13.6327 12.1803L15.8779 19.0902L10 14.8197L4.12215 19.0902L6.36729 12.1803L0.489441 7.90983H7.75487L10 1Z" fill="#017a31"/></g><rect x="587.35" y="241.85" width="34.55" height="34.55" fill="#123524"/><rect x="587.35" y="241.85" width="34.55" height="34.55" fill="#123524"/><rect x="621.9" y="207.3" width="69.1" height="69.1" fill="#017a31"/><rect x="621.9" y="207.3" width="69.1" height="69.1" fill="#123524"/><rect x="691" y="207.3" width="69.1" height="69.1" fill="#123524"/><polygon points="691,207.3 760.1,276.4 691,276.4" fill="#017a31"/><rect x="760.1" y="207.3" width="69.1" height="69.1" fill="#017a31"/><path d="M 760.1 207.3 A 69.1 69.1 0 0 1 829.2 276.4 L 760.1 276.4" fill="#123524"/><rect x="829.2" y="207.3" width="69.1" height="69.1" fill="#017a31"/><path d="M 829.2 276.4 A 69.1 69.1 0 0 1  898.3000000000001 207.3 L 898.3000000000001 276.4" fill="#017a31"/><rect x="898.3" y="207.3" width="69.1" height="69.1" fill="#123524"/><g transform="translate(898.3,207.3) scale(3.4549999999999996) rotate(0)"><path d="M10 1L12.2451 7.90983H19.5106L13.6327 12.1803L15.8779 19.0902L10 14.8197L4.12215 19.0902L6.36729 12.1803L0.489441 7.90983H7.75487L10 1Z" fill="#017a31"/></g><rect x="967.3999999999999" y="207.29999999999998" width="69.1" height="69.1" fill="#292929"/><rect x="967.4" y="207.3" width="34.55" height="34.55" fill="#123524"/><path d="M 967.4 241.85000000000002 A 34.55 34.55 0 0 1  1001.9499999999999 207.3 L 1001.9499999999999 241.85000000000002" fill="#017a31"/><rect x="1001.95" y="207.3" width="34.55" height="34.55" fill="#017a31"/><path d="M 1001.95 241.85000000000002 A 34.55 34.55 0 0 1  1036.5 207.3 L 1036.5 241.85000000000002" fill="#123524"/><rect x="967.4" y="241.85" width="34.55" height="34.55" fill="#017a31"/><g transform="translate(967.4,241.85) scale(1.7274999999999998) rotate(0)"><path d="M10 1L12.2451 7.90983H19.5106L13.6327 12.1803L15.8779 19.0902L10 14.8197L4.12215 19.0902L6.36729 12.1803L0.489441 7.90983H7.75487L10 1Z" fill="#017a31"/></g><rect x="1001.95" y="241.85" width="34.55" height="34.55" fill="#017a31"/><polygon points="1036.5,241.85 1036.5,276.4 1001.95,276.4" fill="#123524"/><rect x="1036.5" y="207.29999999999998" width="69.1" height="69.1" fill="#292929"/><rect x="1036.5" y="207.3" width="34.55" height="34.55" fill="#017a31"/><g transform="translate(1036.5,207.3) scale(1.7274999999999998) rotate(0)"><path d="M10 1L12.2451 7.90983H19.5106L13.6327 12.1803L15.8779 19.0902L10 14.8197L4.12215 19.0902L6.36729 12.1803L0.489441 7.90983H7.75487L10 1Z" fill="#017a31"/></g><rect x="1071.05" y="207.3" width="34.55" height="34.55" fill="#017a31"/><rect x="1071.05" y="207.3" width="34.55" height="34.55" fill="#123524"/><rect x="1036.5" y="241.85" width="34.55" height="34.55" fill="#017a31"/><g transform="translate(1036.5,241.85) scale(1.7274999999999998) rotate(0)"><path d="M10 1L12.2451 7.90983H19.5106L13.6327 12.1803L15.8779 19.0902L10 14.8197L4.12215 19.0902L6.36729 12.1803L0.489441 7.90983H7.75487L10 1Z" fill="#123524"/></g><rect x="1071.05" y="241.85" width="34.55" height="34.55" fill="#017a31"/><rect x="1071.05" y="241.85" width="34.55" height="34.55" fill="#123524"/><rect x="0" y="276.4" width="69.1" height="69.1" fill="#292929"/><rect x="0" y="276.4" width="34.55" height="34.55" fill="#123524"/><path d="M 0 276.4 A 34.55 34.55 0 0 1 34.55 310.95 L 0 310.95" fill="#017a31"/><rect x="34.55" y="276.4" width="34.55" height="34.55" fill="#123524"/><path d="M 34.55 310.95 A 34.55 34.55 0 0 1  69.1 276.4 L 69.1 310.95" fill="#123524"/><rect x="0" y="310.95" width="34.55" height="34.55" fill="#123524"/><polygon points="0,310.95 34.55,310.95 0,345.5" fill="#123524"/><rect x="34.55" y="310.95" width="34.55" height="34.55" fill="#123524"/><g transform="translate(34.55,310.95) scale(1.7274999999999998) rotate(0)"><path d="M10 1L12.2451 7.90983H19.5106L13.6327 12.1803L15.8779 19.0902L10 14.8197L4.12215 19.0902L6.36729 12.1803L0.489441 7.90983H7.75487L10 1Z" fill="#123524"/></g><rect x="69.1" y="276.4" width="69.1" height="69.1" fill="#017a31"/><rect x="69.1" y="276.4" width="69.1" height="69.1" fill="#123524"/><rect x="138.2" y="276.4" width="69.1" height="69.1" fill="#123524"/><g transform="translate(138.2,276.4) scale(3.4549999999999996) rotate(0)"><path d="M10 1L12.2451 7.90983H19.5106L13.6327 12.1803L15.8779 19.0902L10 14.8197L4.12215 19.0902L6.36729 12.1803L0.489441 7.90983H7.75487L10 1Z" fill="#123524"/></g><rect x="207.29999999999998" y="276.4" width="69.1" height="69.1" fill="#292929"/><rect x="207.3" y="276.4" width="34.55" height="34.55" fill="#017a31"/><g transform="translate(207.3,276.4) scale(1.7274999999999998) rotate(0)"><path d="M10 1L12.2451 7.90983H19.5106L13.6327 12.1803L15.8779 19.0902L10 14.8197L4.12215 19.0902L6.36729 12.1803L0.489441 7.90983H7.75487L10 1Z" fill="#123524"/></g><rect x="241.85" y="276.4" width="34.55" height="34.55" fill="#123524"/><rect x="241.85" y="276.4" width="34.55" height="34.55" fill="#017a31"/><rect x="207.3" y="310.95" width="34.55" height="34.55" fill="#017a31"/><polygon points="207.3,310.95 241.85000000000002,310.95 207.3,345.5" fill="#123524"/><rect x="241.85" y="310.95" width="34.55" height="34.55" fill="#123524"/><path d="M 241.85 310.95 A 34.55 34.55 0 0 0 276.4 345.5 L 276.4 310.95" fill="#123524"/><rect x="276.4" y="276.4" width="69.1" height="69.1" fill="#292929"/><rect x="276.4" y="276.4" width="34.55" height="34.55" fill="#017a31"/><path d="M 276.4 310.95 A 34.55 34.55 0 0 1  310.95 276.4 L 276.4 310.95 A 34.55 34.55 0 0 0 310.95 276.4" fill="#123524"/><rect x="310.95" y="276.4" width="34.55" height="34.55" fill="#017a31"/><polygon points="310.95,276.4 345.5,310.95 310.95,310.95" fill="#123524"/><rect x="276.4" y="310.95" width="34.55" height="34.55" fill="#123524"/><path d="M 276.4 345.5 A 34.55 34.55 0 0 1  310.95 310.95 L 276.4 345.5 A 34.55 34.55 0 0 0 310.95 310.95" fill="#123524"/><rect x="310.95" y="310.95" width="34.55" height="34.55" fill="#123524"/><polygon points="310.95,310.95 345.5,310.95 345.5,345.5" fill="#123524"/><rect x="345.5" y="276.4" width="69.1" height="69.1" fill="#017a31"/><path d="M 345.5 276.4 A 69.1 69.1 0 0 1  414.6 345.5 L 345.5 276.4 A 69.1 69.1 0 0 0 414.6 345.5" fill="#017a31"/><rect x="414.59999999999997" y="276.4" width="69.1" height="69.1" fill="#292929"/><rect x="414.6" y="276.4" width="34.55" height="34.55" fill="#123524"/><polygon points="449.15000000000003,276.4 449.15000000000003,310.95 414.6,310.95" fill="#017a31"/><rect x="449.15" y="276.4" width="34.55" height="34.55" fill="#017a31"/><polygon points="449.15,276.4 483.7,276.4 483.7,310.95" fill="#017a31"/><rect x="414.6" y="310.95" width="34.55" height="34.55" fill="#017a31"/><rect x="414.6" y="310.95" width="34.55" height="34.55" fill="#123524"/><rect x="449.15" y="310.95" width="34.55" height="34.55" fill="#017a31"/><polygon points="483.7,310.95 483.7,345.5 449.15,345.5" fill="#017a31"/><rect x="483.7" y="276.4" width="69.1" height="69.1" fill="#017a31"/><g transform="translate(483.7,276.4) scale(3.4549999999999996) rotate(0)"><path d="M10 1L12.2451 7.90983H19.5106L13.6327 12.1803L15.8779 19.0902L10 14.8197L4.12215 19.0902L6.36729 12.1803L0.489441 7.90983H7.75487L10 1Z" fill="#017a31"/></g><rect x="552.8" y="276.4" width="69.1" height="69.1" fill="#123524"/><g transform="translate(552.8,276.4) scale(3.4549999999999996) rotate(0)"><path d="M10 1L12.2451 7.90983H19.5106L13.6327 12.1803L15.8779 19.0902L10 14.8197L4.12215 19.0902L6.36729 12.1803L0.489441 7.90983H7.75487L10 1Z" fill="#123524"/></g><rect x="621.9" y="276.4" width="69.1" height="69.1" fill="#123524"/><rect x="621.9" y="276.4" width="69.1" height="69.1" fill="#123524"/><rect x="691" y="276.4" width="69.1" height="69.1" fill="#123524"/><rect x="691" y="276.4" width="69.1" height="69.1" fill="#123524"/><rect x="760.1" y="276.4" width="69.1" height="69.1" fill="#017a31"/><path d="M 760.1 276.4 A 69.1 69.1 0 0 1 829.2 345.5 L 760.1 345.5" fill="#123524"/><rect x="829.2" y="276.4" width="69.1" height="69.1" fill="#123524"/><path d="M 829.2 276.4 A 69.1 69.1 0 0 1  898.3000000000001 345.5 L 829.2 276.4 A 69.1 69.1 0 0 0 898.3000000000001 345.5" fill="#123524"/><rect x="898.3" y="276.4" width="69.1" height="69.1" fill="#292929"/><rect x="898.3" y="276.4" width="34.55" height="34.55" fill="#017a31"/><g transform="translate(898.3,276.4) scale(1.7274999999999998) rotate(0)"><path d="M10 1L12.2451 7.90983H19.5106L13.6327 12.1803L15.8779 19.0902L10 14.8197L4.12215 19.0902L6.36729 12.1803L0.489441 7.90983H7.75487L10 1Z" fill="#123524"/></g><rect x="932.85" y="276.4" width="34.55" height="34.55" fill="#123524"/><rect x="932.85" y="276.4" width="34.55" height="34.55" fill="#123524"/><rect x="898.3" y="310.95" width="34.55" height="34.55" fill="#017a31"/><rect x="898.3" y="310.95" width="34.55" height="34.55" fill="#017a31"/><rect x="932.85" y="310.95" width="34.55" height="34.55" fill="#017a31"/><g transform="translate(932.85,310.95) scale(1.7274999999999998) rotate(0)"><path d="M10 1L12.2451 7.90983H19.5106L13.6327 12.1803L15.8779 19.0902L10 14.8197L4.12215 19.0902L6.36729 12.1803L0.489441 7.90983H7.75487L10 1Z" fill="#017a31"/></g><rect x="967.4" y="276.4" width="69.1" height="69.1" fill="#017a31"/><path d="M 967.4 345.5 A 69.1 69.1 0 0 0 1036.5 276.4 L 967.4 276.4" fill="#123524"/><rect x="1036.5" y="276.4" width="69.1" height="69.1" fill="#292929"/><rect x="1036.5" y="276.4" width="34.55" height="34.55" fill="#017a31"/><g transform="translate(1036.5,276.4) scale(1.7274999999999998) rotate(0)"><path d="M10 1L12.2451 7.90983H19.5106L13.6327 12.1803L15.8779 19.0902L10 14.8197L4.12215 19.0902L6.36729 12.1803L0.489441 7.90983H7.75487L10 1Z" fill="#017a31"/></g><rect x="1071.05" y="276.4" width="34.55" height="34.55" fill="#017a31"/><polygon points="1071.05,276.4 1105.6,276.4 1071.05,310.95" fill="#123524"/><rect x="1036.5" y="310.95" width="34.55" height="34.55" fill="#017a31"/><polygon points="1036.5,310.95 1071.05,310.95 1036.5,345.5" fill="#123524"/><rect x="1071.05" y="310.95" width="34.55" height="34.55" fill="#123524"/><polygon points="1105.6,310.95 1105.6,345.5 1071.05,345.5" fill="#123524"/><rect x="0" y="345.5" width="69.1" height="69.1" fill="#292929"/><rect x="0" y="345.5" width="34.55" height="34.55" fill="#017a31"/><rect x="0" y="345.5" width="34.55" height="34.55" fill="#123524"/><rect x="34.55" y="345.5" width="34.55" height="34.55" fill="#123524"/><rect x="34.55" y="345.5" width="34.55" height="34.55" fill="#017a31"/><rect x="0" y="380.05" width="34.55" height="34.55" fill="#017a31"/><rect x="0" y="380.05" width="34.55" height="34.55" fill="#123524"/><rect x="34.55" y="380.05" width="34.55" height="34.55" fill="#123524"/><g transform="translate(34.55,380.05) scale(1.7274999999999998) rotate(0)"><path d="M10 1L12.2451 7.90983H19.5106L13.6327 12.1803L15.8779 19.0902L10 14.8197L4.12215 19.0902L6.36729 12.1803L0.489441 7.90983H7.75487L10 1Z" fill="#017a31"/></g><rect x="69.1" y="345.5" width="69.1" height="69.1" fill="#292929"/><rect x="69.1" y="345.5" width="34.55" height="34.55" fill="#123524"/><path d="M 69.1 345.5 A 34.55 34.55 0 0 1  103.64999999999999 380.05 L 69.1 345.5 A 34.55 34.55 0 0 0 103.64999999999999 380.05" fill="#123524"/><rect x="103.65" y="345.5" width="34.55" height="34.55" fill="#123524"/><polygon points="103.65,345.5 138.2,380.05 103.65,380.05" fill="#123524"/><rect x="69.1" y="380.05" width="34.55" height="34.55" fill="#123524"/><rect x="69.1" y="380.05" width="34.55" height="34.55" fill="#017a31"/><rect x="103.65" y="380.05" width="34.55" height="34.55" fill="#123524"/><polygon points="103.65,380.05 138.2,380.05 103.65,414.6" fill="#017a31"/><rect x="138.2" y="345.5" width="69.1" height="69.1" fill="#123524"/><g transform="translate(138.2,345.5) scale(3.4549999999999996) rotate(0)"><path d="M10 1L12.2451 7.90983H19.5106L13.6327 12.1803L15.8779 19.0902L10 14.8197L4.12215 19.0902L6.36729 12.1803L0.489441 7.90983H7.75487L10 1Z" fill="#017a31"/></g><rect x="207.3" y="345.5" width="69.1" height="69.1" fill="#123524"/><g transform="translate(207.3,345.5) scale(3.4549999999999996) rotate(0)"><path d="M10 1L12.2451 7.90983H19.5106L13.6327 12.1803L15.8779 19.0902L10 14.8197L4.12215 19.0902L6.36729 12.1803L0.489441 7.90983H7.75487L10 1Z" fill="#123524"/></g><rect x="276.4" y="345.5" width="69.1" height="69.1" fill="#123524"/><polygon points="276.4,345.5 345.5,414.6 276.4,414.6" fill="#017a31"/><rect x="345.5" y="345.5" width="69.1" height="69.1" fill="#017a31"/><rect x="345.5" y="345.5" width="69.1" height="69.1" fill="#017a31"/><rect x="414.6" y="345.5" width="69.1" height="69.1" fill="#123524"/><g transform="translate(414.6,345.5) scale(3.4549999999999996) rotate(0)"><path d="M10 1L12.2451 7.90983H19.5106L13.6327 12.1803L15.8779 19.0902L10 14.8197L4.12215 19.0902L6.36729 12.1803L0.489441 7.90983H7.75487L10 1Z" fill="#017a31"/></g><rect x="483.7" y="345.5" width="69.1" height="69.1" fill="#017a31"/><path d="M 483.7 345.5 A 69.1 69.1 0 0 1  552.8 414.6 L 483.7 345.5 A 69.1 69.1 0 0 0 552.8 414.6" fill="#017a31"/><rect x="552.8" y="345.5" width="69.1" height="69.1" fill="#017a31"/><rect x="552.8" y="345.5" width="69.1" height="69.1" fill="#123524"/><rect x="621.9" y="345.5" width="69.1" height="69.1" fill="#292929"/><rect x="621.9" y="345.5" width="34.55" height="34.55" fill="#017a31"/><rect x="621.9" y="345.5" width="34.55" height="34.55" fill="#123524"/><rect x="656.45" y="345.5" width="34.55" height="34.55" fill="#123524"/><path d="M 656.45 380.05 A 34.55 34.55 0 0 1  691 345.5 L 656.45 380.05 A 34.55 34.55 0 0 0 691 345.5" fill="#017a31"/><rect x="621.9" y="380.05" width="34.55" height="34.55" fill="#017a31"/><rect x="621.9" y="380.05" width="34.55" height="34.55" fill="#017a31"/><rect x="656.45" y="380.05" width="34.55" height="34.55" fill="#123524"/><polygon points="656.45,380.05 691,380.05 691,414.6" fill="#123524"/><rect x="691" y="345.5" width="69.1" height="69.1" fill="#292929"/><rect x="691" y="345.5" width="34.55" height="34.55" fill="#017a31"/><g transform="translate(691,345.5) scale(1.7274999999999998) rotate(0)"><path d="M10 1L12.2451 7.90983H19.5106L13.6327 12.1803L15.8779 19.0902L10 14.8197L4.12215 19.0902L6.36729 12.1803L0.489441 7.90983H7.75487L10 1Z" fill="#123524"/></g><rect x="725.55" y="345.5" width="34.55" height="34.55" fill="#123524"/><g transform="translate(725.55,345.5) scale(1.7274999999999998) rotate(0)"><path d="M10 1L12.2451 7.90983H19.5106L13.6327 12.1803L15.8779 19.0902L10 14.8197L4.12215 19.0902L6.36729 12.1803L0.489441 7.90983H7.75487L10 1Z" fill="#123524"/></g><rect x="691" y="380.05" width="34.55" height="34.55" fill="#123524"/><polygon points="691,380.05 725.55,380.05 691,414.6" fill="#123524"/><rect x="725.55" y="380.05" width="34.55" height="34.55" fill="#123524"/><polygon points="725.55,380.05 760.0999999999999,380.05 725.55,414.6" fill="#123524"/><rect x="760.0999999999999" y="345.5" width="69.1" height="69.1" fill="#292929"/><rect x="760.1" y="345.5" width="34.55" height="34.55" fill="#017a31"/><g transform="translate(760.1,345.5) scale(1.7274999999999998) rotate(0)"><path d="M10 1L12.2451 7.90983H19.5106L13.6327 12.1803L15.8779 19.0902L10 14.8197L4.12215 19.0902L6.36729 12.1803L0.489441 7.90983H7.75487L10 1Z" fill="#123524"/></g><rect x="794.65" y="345.5" width="34.55" height="34.55" fill="#017a31"/><path d="M 794.65 380.05 A 34.55 34.55 0 0 0 829.1999999999999 345.5 L 794.65 345.5" fill="#123524"/><rect x="760.1" y="380.05" width="34.55" height="34.55" fill="#123524"/><path d="M 760.1 380.05 A 34.55 34.55 0 0 1  794.65 414.6 L 760.1 380.05 A 34.55 34.55 0 0 0 794.65 414.6" fill="#123524"/><rect x="794.65" y="380.05" width="34.55" height="34.55" fill="#123524"/><polygon points="794.65,380.05 829.1999999999999,414.6 794.65,414.6" fill="#017a31"/><rect x="829.2" y="345.5" width="69.1" height="69.1" fill="#017a31"/><rect x="829.2" y="345.5" width="69.1" height="69.1" fill="#123524"/><rect x="898.3" y="345.5" width="69.1" height="69.1" fill="#017a31"/><polygon points="898.3,345.5 967.4,414.6 898.3,414.6" fill="#123524"/><rect x="967.3999999999999" y="345.5" width="69.1" height="69.1" fill="#292929"/><rect x="967.4" y="345.5" width="34.55" height="34.55" fill="#123524"/><rect x="967.4" y="345.5" width="34.55" height="34.55" fill="#017a31"/><rect x="1001.95" y="345.5" width="34.55" height="34.55" fill="#123524"/><g transform="translate(1001.95,345.5) scale(1.7274999999999998) rotate(0)"><path d="M10 1L12.2451 7.90983H19.5106L13.6327 12.1803L15.8779 19.0902L10 14.8197L4.12215 19.0902L6.36729 12.1803L0.489441 7.90983H7.75487L10 1Z" fill="#123524"/></g><rect x="967.4" y="380.05" width="34.55" height="34.55" fill="#017a31"/><rect x="967.4" y="380.05" width="34.55" height="34.55" fill="#017a31"/><rect x="1001.95" y="380.05" width="34.55" height="34.55" fill="#017a31"/><g transform="translate(1001.95,380.05) scale(1.7274999999999998) rotate(0)"><path d="M10 1L12.2451 7.90983H19.5106L13.6327 12.1803L15.8779 19.0902L10 14.8197L4.12215 19.0902L6.36729 12.1803L0.489441 7.90983H7.75487L10 1Z" fill="#123524"/></g><rect x="1036.5" y="345.5" width="69.1" height="69.1" fill="#292929"/><rect x="1036.5" y="345.5" width="34.55" height="34.55" fill="#123524"/><g transform="translate(1036.5,345.5) scale(1.7274999999999998) rotate(0)"><path d="M10 1L12.2451 7.90983H19.5106L13.6327 12.1803L15.8779 19.0902L10 14.8197L4.12215 19.0902L6.36729 12.1803L0.489441 7.90983H7.75487L10 1Z" fill="#017a31"/></g><rect x="1071.05" y="345.5" width="34.55" height="34.55" fill="#017a31"/><g transform="translate(1071.05,345.5) scale(1.7274999999999998) rotate(0)"><path d="M10 1L12.2451 7.90983H19.5106L13.6327 12.1803L15.8779 19.0902L10 14.8197L4.12215 19.0902L6.36729 12.1803L0.489441 7.90983H7.75487L10 1Z" fill="#017a31"/></g><rect x="1036.5" y="380.05" width="34.55" height="34.55" fill="#017a31"/><path d="M 1036.5 414.6 A 34.55 34.55 0 0 1  1071.05 380.05 L 1071.05 414.6" fill="#017a31"/><rect x="1071.05" y="380.05" width="34.55" height="34.55" fill="#017a31"/><polygon points="1071.05,380.05 1105.6,414.6 1071.05,414.6" fill="#123524"/><rect x="0" y="414.59999999999997" width="69.1" height="69.1" fill="#292929"/><rect x="0" y="414.6" width="34.55" height="34.55" fill="#123524"/><polygon points="0,414.6 34.55,414.6 0,449.15000000000003" fill="#017a31"/><rect x="34.55" y="414.6" width="34.55" height="34.55" fill="#123524"/><g transform="translate(34.55,414.6) scale(1.7274999999999998) rotate(0)"><path d="M10 1L12.2451 7.90983H19.5106L13.6327 12.1803L15.8779 19.0902L10 14.8197L4.12215 19.0902L6.36729 12.1803L0.489441 7.90983H7.75487L10 1Z" fill="#017a31"/></g><rect x="0" y="449.15" width="34.55" height="34.55" fill="#017a31"/><path d="M 0 449.15 A 34.55 34.55 0 0 1 34.55 483.7 L 0 483.7" fill="#017a31"/><rect x="34.55" y="449.15" width="34.55" height="34.55" fill="#123524"/><rect x="34.55" y="449.15" width="34.55" height="34.55" fill="#123524"/><rect x="69.1" y="414.59999999999997" width="69.1" height="69.1" fill="#292929"/><rect x="69.1" y="414.6" width="34.55" height="34.55" fill="#123524"/><rect x="69.1" y="414.6" width="34.55" height="34.55" fill="#017a31"/><rect x="103.65" y="414.6" width="34.55" height="34.55" fill="#123524"/><polygon points="103.65,414.6 138.2,449.15000000000003 103.65,449.15000000000003" fill="#017a31"/><rect x="69.1" y="449.15" width="34.55" height="34.55" fill="#123524"/><path d="M 69.1 449.15 A 34.55 34.55 0 0 1  103.64999999999999 483.7 L 69.1 449.15 A 34.55 34.55 0 0 0 103.64999999999999 483.7" fill="#123524"/><rect x="103.65" y="449.15" width="34.55" height="34.55" fill="#123524"/><polygon points="103.65,449.15 138.2,449.15 103.65,483.7" fill="#123524"/><rect x="138.2" y="414.6" width="69.1" height="69.1" fill="#123524"/><rect x="138.2" y="414.6" width="69.1" height="69.1" fill="#123524"/><rect x="207.3" y="414.6" width="69.1" height="69.1" fill="#017a31"/><g transform="translate(207.3,414.6) scale(3.4549999999999996) rotate(0)"><path d="M10 1L12.2451 7.90983H19.5106L13.6327 12.1803L15.8779 19.0902L10 14.8197L4.12215 19.0902L6.36729 12.1803L0.489441 7.90983H7.75487L10 1Z" fill="#123524"/></g><rect x="276.4" y="414.59999999999997" width="69.1" height="69.1" fill="#292929"/><rect x="276.4" y="414.6" width="34.55" height="34.55" fill="#123524"/><path d="M 276.4 449.15000000000003 A 34.55 34.55 0 0 0 310.95 414.6 L 276.4 414.6" fill="#123524"/><rect x="310.95" y="414.6" width="34.55" height="34.55" fill="#123524"/><polygon points="310.95,414.6 345.5,414.6 345.5,449.15000000000003" fill="#123524"/><rect x="276.4" y="449.15" width="34.55" height="34.55" fill="#017a31"/><g transform="translate(276.4,449.15) scale(1.7274999999999998) rotate(0)"><path d="M10 1L12.2451 7.90983H19.5106L13.6327 12.1803L15.8779 19.0902L10 14.8197L4.12215 19.0902L6.36729 12.1803L0.489441 7.90983H7.75487L10 1Z" fill="#123524"/></g><rect x="310.95" y="449.15" width="34.55" height="34.55" fill="#017a31"/><path d="M 310.95 449.15 A 34.55 34.55 0 0 0 345.5 483.7 L 345.5 449.15" fill="#017a31"/><rect x="345.5" y="414.6" width="69.1" height="69.1" fill="#123524"/><path d="M 345.5 414.6 A 69.1 69.1 0 0 1 414.6 483.70000000000005 L 345.5 483.70000000000005" fill="#123524"/><rect x="414.6" y="414.6" width="69.1" height="69.1" fill="#123524"/><polygon points="483.70000000000005,414.6 483.70000000000005,483.70000000000005 414.6,483.70000000000005" fill="#123524"/><rect x="483.69999999999993" y="414.59999999999997" width="69.1" height="69.1" fill="#292929"/><rect x="483.7" y="414.6" width="34.55" height="34.55" fill="#017a31"/><path d="M 483.7 414.6 A 34.55 34.55 0 0 1  518.25 449.15000000000003 L 483.7 414.6 A 34.55 34.55 0 0 0 518.25 449.15000000000003" fill="#123524"/><rect x="518.25" y="414.6" width="34.55" height="34.55" fill="#123524"/><path d="M 518.25 449.15000000000003 A 34.55 34.55 0 0 0 552.8 414.6 L 518.25 414.6" fill="#123524"/><rect x="483.7" y="449.15" width="34.55" height="34.55" fill="#017a31"/><polygon points="483.7,449.15 518.25,449.15 518.25,483.7" fill="#017a31"/><rect x="518.25" y="449.15" width="34.55" height="34.55" fill="#123524"/><g transform="translate(518.25,449.15) scale(1.7274999999999998) rotate(0)"><path d="M10 1L12.2451 7.90983H19.5106L13.6327 12.1803L15.8779 19.0902L10 14.8197L4.12215 19.0902L6.36729 12.1803L0.489441 7.90983H7.75487L10 1Z" fill="#017a31"/></g><rect x="552.8" y="414.6" width="69.1" height="69.1" fill="#123524"/><rect x="552.8" y="414.6" width="69.1" height="69.1" fill="#017a31"/><rect x="621.9" y="414.59999999999997" width="69.1" height="69.1" fill="#292929"/><rect x="621.9" y="414.6" width="34.55" height="34.55" fill="#017a31"/><path d="M 621.9 449.15000000000003 A 34.55 34.55 0 0 1  656.4499999999999 414.6 L 656.4499999999999 449.15000000000003" fill="#123524"/><rect x="656.45" y="414.6" width="34.55" height="34.55" fill="#123524"/><polygon points="656.45,414.6 691,414.6 691,449.15000000000003" fill="#017a31"/><rect x="621.9" y="449.15" width="34.55" height="34.55" fill="#123524"/><g transform="translate(621.9,449.15) scale(1.7274999999999998) rotate(0)"><path d="M10 1L12.2451 7.90983H19.5106L13.6327 12.1803L15.8779 19.0902L10 14.8197L4.12215 19.0902L6.36729 12.1803L0.489441 7.90983H7.75487L10 1Z" fill="#123524"/></g><rect x="656.45" y="449.15" width="34.55" height="34.55" fill="#017a31"/><polygon points="656.45,449.15 691,483.7 656.45,483.7" fill="#017a31"/><rect x="691" y="414.59999999999997" width="69.1" height="69.1" fill="#292929"/><rect x="691" y="414.6" width="34.55" height="34.55" fill="#123524"/><rect x="691" y="414.6" width="34.55" height="34.55" fill="#123524"/><rect x="725.55" y="414.6" width="34.55" height="34.55" fill="#017a31"/><path d="M 725.55 414.6 A 34.55 34.55 0 0 1  760.0999999999999 449.15000000000003 L 725.55 414.6 A 34.55 34.55 0 0 0 760.0999999999999 449.15000000000003" fill="#017a31"/><rect x="691" y="449.15" width="34.55" height="34.55" fill="#017a31"/><path d="M 691 483.7 A 34.55 34.55 0 0 1  725.55 449.15 L 725.55 483.7" fill="#123524"/><rect x="725.55" y="449.15" width="34.55" height="34.55" fill="#123524"/><polygon points="725.55,449.15 760.0999999999999,449.15 760.0999999999999,483.7" fill="#123524"/><rect x="760.0999999999999" y="414.59999999999997" width="69.1" height="69.1" fill="#292929"/><rect x="760.1" y="414.6" width="34.55" height="34.55" fill="#123524"/><path d="M 760.1 414.6 A 34.55 34.55 0 0 0 794.65 449.15000000000003 L 794.65 414.6" fill="#123524"/><rect x="794.65" y="414.6" width="34.55" height="34.55" fill="#123524"/><path d="M 794.65 414.6 A 34.55 34.55 0 0 1  829.1999999999999 449.15000000000003 L 794.65 414.6 A 34.55 34.55 0 0 0 829.1999999999999 449.15000000000003" fill="#123524"/><rect x="760.1" y="449.15" width="34.55" height="34.55" fill="#017a31"/><rect x="760.1" y="449.15" width="34.55" height="34.55" fill="#123524"/><rect x="794.65" y="449.15" width="34.55" height="34.55" fill="#123524"/><path d="M 794.65 483.7 A 34.55 34.55 0 0 1  829.1999999999999 449.15 L 829.1999999999999 483.7" fill="#123524"/><rect x="829.1999999999999" y="414.59999999999997" width="69.1" height="69.1" fill="#292929"/><rect x="829.2" y="414.6" width="34.55" height="34.55" fill="#017a31"/><g transform="translate(829.2,414.6) scale(1.7274999999999998) rotate(0)"><path d="M10 1L12.2451 7.90983H19.5106L13.6327 12.1803L15.8779 19.0902L10 14.8197L4.12215 19.0902L6.36729 12.1803L0.489441 7.90983H7.75487L10 1Z" fill="#017a31"/></g><rect x="863.75" y="414.6" width="34.55" height="34.55" fill="#017a31"/><path d="M 863.75 414.6 A 34.55 34.55 0 0 1  898.3 449.15000000000003 L 863.75 414.6 A 34.55 34.55 0 0 0 898.3 449.15000000000003" fill="#017a31"/><rect x="829.2" y="449.15" width="34.55" height="34.55" fill="#123524"/><rect x="829.2" y="449.15" width="34.55" height="34.55" fill="#123524"/><rect x="863.75" y="449.15" width="34.55" height="34.55" fill="#123524"/><rect x="863.75" y="449.15" width="34.55" height="34.55" fill="#017a31"/><rect x="898.3" y="414.6" width="69.1" height="69.1" fill="#017a31"/><path d="M 898.3 483.70000000000005 A 69.1 69.1 0 0 1  967.4 414.6 L 898.3 483.70000000000005 A 69.1 69.1 0 0 0 967.4 414.6" fill="#017a31"/><rect x="967.3999999999999" y="414.59999999999997" width="69.1" height="69.1" fill="#292929"/><rect x="967.4" y="414.6" width="34.55" height="34.55" fill="#123524"/><polygon points="1001.9499999999999,414.6 1001.9499999999999,449.15000000000003 967.4,449.15000000000003" fill="#123524"/><rect x="1001.95" y="414.6" width="34.55" height="34.55" fill="#017a31"/><rect x="1001.95" y="414.6" width="34.55" height="34.55" fill="#017a31"/><rect x="967.4" y="449.15" width="34.55" height="34.55" fill="#017a31"/><polygon points="1001.9499999999999,449.15 1001.9499999999999,483.7 967.4,483.7" fill="#123524"/><rect x="1001.95" y="449.15" width="34.55" height="34.55" fill="#017a31"/><rect x="1001.95" y="449.15" width="34.55" height="34.55" fill="#017a31"/><rect x="1036.5" y="414.6" width="69.1" height="69.1" fill="#017a31"/><rect x="1036.5" y="414.6" width="69.1" height="69.1" fill="#123524"/><rect x="0" y="483.7" width="69.1" height="69.1" fill="#017a31"/><g transform="translate(0,483.7) scale(3.4549999999999996) rotate(0)"><path d="M10 1L12.2451 7.90983H19.5106L13.6327 12.1803L15.8779 19.0902L10 14.8197L4.12215 19.0902L6.36729 12.1803L0.489441 7.90983H7.75487L10 1Z" fill="#017a31"/></g><rect x="69.1" y="483.69999999999993" width="69.1" height="69.1" fill="#292929"/><rect x="69.1" y="483.7" width="34.55" height="34.55" fill="#017a31"/><g transform="translate(69.1,483.7) scale(1.7274999999999998) rotate(0)"><path d="M10 1L12.2451 7.90983H19.5106L13.6327 12.1803L15.8779 19.0902L10 14.8197L4.12215 19.0902L6.36729 12.1803L0.489441 7.90983H7.75487L10 1Z" fill="#017a31"/></g><rect x="103.65" y="483.7" width="34.55" height="34.55" fill="#123524"/><rect x="103.65" y="483.7" width="34.55" height="34.55" fill="#123524"/><rect x="69.1" y="518.25" width="34.55" height="34.55" fill="#123524"/><polygon points="69.1,518.25 103.64999999999999,518.25 103.64999999999999,552.8" fill="#017a31"/><rect x="103.65" y="518.25" width="34.55" height="34.55" fill="#017a31"/><polygon points="103.65,518.25 138.2,518.25 138.2,552.8" fill="#123524"/><rect x="138.2" y="483.69999999999993" width="69.1" height="69.1" fill="#292929"/><rect x="138.2" y="483.7" width="34.55" height="34.55" fill="#123524"/><path d="M 138.2 483.7 A 34.55 34.55 0 0 1 172.75 518.25 L 138.2 518.25" fill="#017a31"/><rect x="172.75" y="483.7" width="34.55" height="34.55" fill="#123524"/><path d="M 172.75 518.25 A 34.55 34.55 0 0 1  207.3 483.7 L 172.75 518.25 A 34.55 34.55 0 0 0 207.3 483.7" fill="#123524"/><rect x="138.2" y="518.25" width="34.55" height="34.55" fill="#017a31"/><polygon points="138.2,518.25 172.75,552.8 138.2,552.8" fill="#017a31"/><rect x="172.75" y="518.25" width="34.55" height="34.55" fill="#017a31"/><g transform="translate(172.75,518.25) scale(1.7274999999999998) rotate(0)"><path d="M10 1L12.2451 7.90983H19.5106L13.6327 12.1803L15.8779 19.0902L10 14.8197L4.12215 19.0902L6.36729 12.1803L0.489441 7.90983H7.75487L10 1Z" fill="#017a31"/></g><rect x="207.3" y="483.7" width="69.1" height="69.1" fill="#017a31"/><polygon points="207.3,483.7 276.4,552.8 207.3,552.8" fill="#017a31"/><rect x="276.4" y="483.69999999999993" width="69.1" height="69.1" fill="#292929"/><rect x="276.4" y="483.7" width="34.55" height="34.55" fill="#123524"/><rect x="276.4" y="483.7" width="34.55" height="34.55" fill="#017a31"/><rect x="310.95" y="483.7" width="34.55" height="34.55" fill="#017a31"/><polygon points="310.95,483.7 345.5,483.7 345.5,518.25" fill="#123524"/><rect x="276.4" y="518.25" width="34.55" height="34.55" fill="#123524"/><path d="M 276.4 518.25 A 34.55 34.55 0 0 0 310.95 552.8 L 310.95 518.25" fill="#123524"/><rect x="310.95" y="518.25" width="34.55" height="34.55" fill="#017a31"/><rect x="310.95" y="518.25" width="34.55" height="34.55" fill="#017a31"/><rect x="345.5" y="483.69999999999993" width="69.1" height="69.1" fill="#292929"/><rect x="345.5" y="483.7" width="34.55" height="34.55" fill="#017a31"/><g transform="translate(345.5,483.7) scale(1.7274999999999998) rotate(0)"><path d="M10 1L12.2451 7.90983H19.5106L13.6327 12.1803L15.8779 19.0902L10 14.8197L4.12215 19.0902L6.36729 12.1803L0.489441 7.90983H7.75487L10 1Z" fill="#017a31"/></g><rect x="380.05" y="483.7" width="34.55" height="34.55" fill="#123524"/><polygon points="414.6,483.7 414.6,518.25 380.05,518.25" fill="#123524"/><rect x="345.5" y="518.25" width="34.55" height="34.55" fill="#017a31"/><path d="M 345.5 518.25 A 34.55 34.55 0 0 1  380.05 552.8 L 345.5 518.25 A 34.55 34.55 0 0 0 380.05 552.8" fill="#123524"/><rect x="380.05" y="518.25" width="34.55" height="34.55" fill="#017a31"/><g transform="translate(380.05,518.25) scale(1.7274999999999998) rotate(0)"><path d="M10 1L12.2451 7.90983H19.5106L13.6327 12.1803L15.8779 19.0902L10 14.8197L4.12215 19.0902L6.36729 12.1803L0.489441 7.90983H7.75487L10 1Z" fill="#017a31"/></g><rect x="414.6" y="483.7" width="69.1" height="69.1" fill="#123524"/><polygon points="414.6,483.7 483.70000000000005,483.7 414.6,552.8" fill="#017a31"/><rect x="483.69999999999993" y="483.69999999999993" width="69.1" height="69.1" fill="#292929"/><rect x="483.7" y="483.7" width="34.55" height="34.55" fill="#017a31"/><g transform="translate(483.7,483.7) scale(1.7274999999999998) rotate(0)"><path d="M10 1L12.2451 7.90983H19.5106L13.6327 12.1803L15.8779 19.0902L10 14.8197L4.12215 19.0902L6.36729 12.1803L0.489441 7.90983H7.75487L10 1Z" fill="#123524"/></g><rect x="518.25" y="483.7" width="34.55" height="34.55" fill="#123524"/><rect x="518.25" y="483.7" width="34.55" height="34.55" fill="#123524"/><rect x="483.7" y="518.25" width="34.55" height="34.55" fill="#123524"/><path d="M 483.7 518.25 A 34.55 34.55 0 0 1  518.25 552.8 L 483.7 518.25 A 34.55 34.55 0 0 0 518.25 552.8" fill="#017a31"/><rect x="518.25" y="518.25" width="34.55" height="34.55" fill="#017a31"/><path d="M 518.25 552.8 A 34.55 34.55 0 0 1  552.8 518.25 L 518.25 552.8 A 34.55 34.55 0 0 0 552.8 518.25" fill="#123524"/><rect x="552.8" y="483.7" width="69.1" height="69.1" fill="#017a31"/><polygon points="552.8,483.7 621.9,483.7 552.8,552.8" fill="#123524"/><rect x="621.9" y="483.69999999999993" width="69.1" height="69.1" fill="#292929"/><rect x="621.9" y="483.7" width="34.55" height="34.55" fill="#123524"/><g transform="translate(621.9,483.7) scale(1.7274999999999998) rotate(0)"><path d="M10 1L12.2451 7.90983H19.5106L13.6327 12.1803L15.8779 19.0902L10 14.8197L4.12215 19.0902L6.36729 12.1803L0.489441 7.90983H7.75487L10 1Z" fill="#123524"/></g><rect x="656.45" y="483.7" width="34.55" height="34.55" fill="#017a31"/><g transform="translate(656.45,483.7) scale(1.7274999999999998) rotate(0)"><path d="M10 1L12.2451 7.90983H19.5106L13.6327 12.1803L15.8779 19.0902L10 14.8197L4.12215 19.0902L6.36729 12.1803L0.489441 7.90983H7.75487L10 1Z" fill="#123524"/></g><rect x="621.9" y="518.25" width="34.55" height="34.55" fill="#123524"/><rect x="621.9" y="518.25" width="34.55" height="34.55" fill="#123524"/><rect x="656.45" y="518.25" width="34.55" height="34.55" fill="#017a31"/><g transform="translate(656.45,518.25) scale(1.7274999999999998) rotate(0)"><path d="M10 1L12.2451 7.90983H19.5106L13.6327 12.1803L15.8779 19.0902L10 14.8197L4.12215 19.0902L6.36729 12.1803L0.489441 7.90983H7.75487L10 1Z" fill="#017a31"/></g><rect x="691" y="483.69999999999993" width="69.1" height="69.1" fill="#292929"/><rect x="691" y="483.7" width="34.55" height="34.55" fill="#123524"/><rect x="691" y="483.7" width="34.55" height="34.55" fill="#123524"/><rect x="725.55" y="483.7" width="34.55" height="34.55" fill="#123524"/><rect x="725.55" y="483.7" width="34.55" height="34.55" fill="#123524"/><rect x="691" y="518.25" width="34.55" height="34.55" fill="#123524"/><rect x="691" y="518.25" width="34.55" height="34.55" fill="#017a31"/><rect x="725.55" y="518.25" width="34.55" height="34.55" fill="#123524"/><polygon points="725.55,518.25 760.0999999999999,552.8 725.55,552.8" fill="#123524"/><rect x="760.0999999999999" y="483.69999999999993" width="69.1" height="69.1" fill="#292929"/><rect x="760.1" y="483.7" width="34.55" height="34.55" fill="#017a31"/><rect x="760.1" y="483.7" width="34.55" height="34.55" fill="#017a31"/><rect x="794.65" y="483.7" width="34.55" height="34.55" fill="#123524"/><g transform="translate(794.65,483.7) scale(1.7274999999999998) rotate(0)"><path d="M10 1L12.2451 7.90983H19.5106L13.6327 12.1803L15.8779 19.0902L10 14.8197L4.12215 19.0902L6.36729 12.1803L0.489441 7.90983H7.75487L10 1Z" fill="#017a31"/></g><rect x="760.1" y="518.25" width="34.55" height="34.55" fill="#017a31"/><path d="M 760.1 518.25 A 34.55 34.55 0 0 0 794.65 552.8 L 794.65 518.25" fill="#017a31"/><rect x="794.65" y="518.25" width="34.55" height="34.55" fill="#123524"/><polygon points="794.65,518.25 829.1999999999999,552.8 794.65,552.8" fill="#123524"/><rect x="829.2" y="483.7" width="69.1" height="69.1" fill="#123524"/><rect x="829.2" y="483.7" width="69.1" height="69.1" fill="#123524"/><rect x="898.3" y="483.69999999999993" width="69.1" height="69.1" fill="#292929"/><rect x="898.3" y="483.7" width="34.55" height="34.55" fill="#123524"/><polygon points="898.3,483.7 932.8499999999999,483.7 932.8499999999999,518.25" fill="#123524"/><rect x="932.85" y="483.7" width="34.55" height="34.55" fill="#017a31"/><g transform="translate(932.85,483.7) scale(1.7274999999999998) rotate(0)"><path d="M10 1L12.2451 7.90983H19.5106L13.6327 12.1803L15.8779 19.0902L10 14.8197L4.12215 19.0902L6.36729 12.1803L0.489441 7.90983H7.75487L10 1Z" fill="#017a31"/></g><rect x="898.3" y="518.25" width="34.55" height="34.55" fill="#017a31"/><polygon points="898.3,518.25 932.8499999999999,518.25 898.3,552.8" fill="#123524"/><rect x="932.85" y="518.25" width="34.55" height="34.55" fill="#123524"/><polygon points="967.4,518.25 967.4,552.8 932.85,552.8" fill="#123524"/><rect x="967.3999999999999" y="483.69999999999993" width="69.1" height="69.1" fill="#292929"/><rect x="967.4" y="483.7" width="34.55" height="34.55" fill="#017a31"/><path d="M 967.4 483.7 A 34.55 34.55 0 0 0 1001.9499999999999 518.25 L 1001.9499999999999 483.7" fill="#123524"/><rect x="1001.95" y="483.7" width="34.55" height="34.55" fill="#123524"/><g transform="translate(1001.95,483.7) scale(1.7274999999999998) rotate(0)"><path d="M10 1L12.2451 7.90983H19.5106L13.6327 12.1803L15.8779 19.0902L10 14.8197L4.12215 19.0902L6.36729 12.1803L0.489441 7.90983H7.75487L10 1Z" fill="#017a31"/></g><rect x="967.4" y="518.25" width="34.55" height="34.55" fill="#017a31"/><polygon points="967.4,518.25 1001.9499999999999,518.25 967.4,552.8" fill="#123524"/><rect x="1001.95" y="518.25" width="34.55" height="34.55" fill="#123524"/><rect x="1001.95" y="518.25" width="34.55" height="34.55" fill="#123524"/><rect x="1036.5" y="483.7" width="69.1" height="69.1" fill="#017a31"/><path d="M 1036.5 552.8 A 69.1 69.1 0 0 0 1105.6 483.7 L 1036.5 483.7" fill="#123524"/><rect x="0" y="552.8" width="69.1" height="69.1" fill="#292929"/><rect x="0" y="552.8" width="34.55" height="34.55" fill="#017a31"/><rect x="0" y="552.8" width="34.55" height="34.55" fill="#017a31"/><rect x="34.55" y="552.8" width="34.55" height="34.55" fill="#123524"/><path d="M 34.55 552.8 A 34.55 34.55 0 0 1 69.1 587.3499999999999 L 34.55 587.3499999999999" fill="#017a31"/><rect x="0" y="587.35" width="34.55" height="34.55" fill="#017a31"/><g transform="translate(0,587.35) scale(1.7274999999999998) rotate(0)"><path d="M10 1L12.2451 7.90983H19.5106L13.6327 12.1803L15.8779 19.0902L10 14.8197L4.12215 19.0902L6.36729 12.1803L0.489441 7.90983H7.75487L10 1Z" fill="#123524"/></g><rect x="34.55" y="587.35" width="34.55" height="34.55" fill="#123524"/><path d="M 34.55 587.35 A 34.55 34.55 0 0 1 69.1 621.9 L 34.55 621.9" fill="#123524"/><rect x="69.1" y="552.8" width="69.1" height="69.1" fill="#123524"/><g transform="translate(69.1,552.8) scale(3.4549999999999996) rotate(0)"><path d="M10 1L12.2451 7.90983H19.5106L13.6327 12.1803L15.8779 19.0902L10 14.8197L4.12215 19.0902L6.36729 12.1803L0.489441 7.90983H7.75487L10 1Z" fill="#123524"/></g><rect x="138.2" y="552.8" width="69.1" height="69.1" fill="#123524"/><rect x="138.2" y="552.8" width="69.1" height="69.1" fill="#123524"/><rect x="207.3" y="552.8" width="69.1" height="69.1" fill="#123524"/><path d="M 207.3 621.9 A 69.1 69.1 0 0 1  276.4 552.8 L 207.3 621.9 A 69.1 69.1 0 0 0 276.4 552.8" fill="#123524"/><rect x="276.4" y="552.8" width="69.1" height="69.1" fill="#017a31"/><g transform="translate(276.4,552.8) scale(3.4549999999999996) rotate(0)"><path d="M10 1L12.2451 7.90983H19.5106L13.6327 12.1803L15.8779 19.0902L10 14.8197L4.12215 19.0902L6.36729 12.1803L0.489441 7.90983H7.75487L10 1Z" fill="#123524"/></g><rect x="345.5" y="552.8" width="69.1" height="69.1" fill="#017a31"/><g transform="translate(345.5,552.8) scale(3.4549999999999996) rotate(0)"><path d="M10 1L12.2451 7.90983H19.5106L13.6327 12.1803L15.8779 19.0902L10 14.8197L4.12215 19.0902L6.36729 12.1803L0.489441 7.90983H7.75487L10 1Z" fill="#017a31"/></g><rect x="414.59999999999997" y="552.8" width="69.1" height="69.1" fill="#292929"/><rect x="414.6" y="552.8" width="34.55" height="34.55" fill="#017a31"/><rect x="414.6" y="552.8" width="34.55" height="34.55" fill="#123524"/><rect x="449.15" y="552.8" width="34.55" height="34.55" fill="#123524"/><polygon points="449.15,552.8 483.7,587.3499999999999 449.15,587.3499999999999" fill="#017a31"/><rect x="414.6" y="587.35" width="34.55" height="34.55" fill="#017a31"/><rect x="414.6" y="587.35" width="34.55" height="34.55" fill="#123524"/><rect x="449.15" y="587.35" width="34.55" height="34.55" fill="#017a31"/><g transform="translate(449.15,587.35) scale(1.7274999999999998) rotate(0)"><path d="M10 1L12.2451 7.90983H19.5106L13.6327 12.1803L15.8779 19.0902L10 14.8197L4.12215 19.0902L6.36729 12.1803L0.489441 7.90983H7.75487L10 1Z" fill="#123524"/></g><rect x="483.7" y="552.8" width="69.1" height="69.1" fill="#123524"/><path d="M 483.7 621.9 A 69.1 69.1 0 0 1  552.8 552.8 L 552.8 621.9" fill="#123524"/><rect x="552.8" y="552.8" width="69.1" height="69.1" fill="#292929"/><rect x="552.8" y="552.8" width="34.55" height="34.55" fill="#017a31"/><g transform="translate(552.8,552.8) scale(1.7274999999999998) rotate(0)"><path d="M10 1L12.2451 7.90983H19.5106L13.6327 12.1803L15.8779 19.0902L10 14.8197L4.12215 19.0902L6.36729 12.1803L0.489441 7.90983H7.75487L10 1Z" fill="#123524"/></g><rect x="587.35" y="552.8" width="34.55" height="34.55" fill="#017a31"/><path d="M 587.35 552.8 A 34.55 34.55 0 0 1 621.9 587.3499999999999 L 587.35 587.3499999999999" fill="#017a31"/><rect x="552.8" y="587.35" width="34.55" height="34.55" fill="#123524"/><path d="M 552.8 587.35 A 34.55 34.55 0 0 0 587.3499999999999 621.9 L 587.3499999999999 587.35" fill="#017a31"/><rect x="587.35" y="587.35" width="34.55" height="34.55" fill="#017a31"/><polygon points="587.35,587.35 621.9,621.9 587.35,621.9" fill="#123524"/><rect x="621.9" y="552.8" width="69.1" height="69.1" fill="#292929"/><rect x="621.9" y="552.8" width="34.55" height="34.55" fill="#017a31"/><g transform="translate(621.9,552.8) scale(1.7274999999999998) rotate(0)"><path d="M10 1L12.2451 7.90983H19.5106L13.6327 12.1803L15.8779 19.0902L10 14.8197L4.12215 19.0902L6.36729 12.1803L0.489441 7.90983H7.75487L10 1Z" fill="#017a31"/></g><rect x="656.45" y="552.8" width="34.55" height="34.55" fill="#017a31"/><polygon points="691,552.8 691,587.3499999999999 656.45,587.3499999999999" fill="#017a31"/><rect x="621.9" y="587.35" width="34.55" height="34.55" fill="#017a31"/><rect x="621.9" y="587.35" width="34.55" height="34.55" fill="#123524"/><rect x="656.45" y="587.35" width="34.55" height="34.55" fill="#123524"/><polygon points="656.45,587.35 691,587.35 691,621.9" fill="#017a31"/><rect x="691" y="552.8" width="69.1" height="69.1" fill="#017a31"/><polygon points="760.1,552.8 760.1,621.9 691,621.9" fill="#017a31"/><rect x="760.1" y="552.8" width="69.1" height="69.1" fill="#017a31"/><rect x="760.1" y="552.8" width="69.1" height="69.1" fill="#123524"/><rect x="829.1999999999999" y="552.8" width="69.1" height="69.1" fill="#292929"/><rect x="829.2" y="552.8" width="34.55" height="34.55" fill="#017a31"/><path d="M 829.2 552.8 A 34.55 34.55 0 0 1  863.75 587.3499999999999 L 829.2 552.8 A 34.55 34.55 0 0 0 863.75 587.3499999999999" fill="#123524"/><rect x="863.75" y="552.8" width="34.55" height="34.55" fill="#123524"/><g transform="translate(863.75,552.8) scale(1.7274999999999998) rotate(0)"><path d="M10 1L12.2451 7.90983H19.5106L13.6327 12.1803L15.8779 19.0902L10 14.8197L4.12215 19.0902L6.36729 12.1803L0.489441 7.90983H7.75487L10 1Z" fill="#017a31"/></g><rect x="829.2" y="587.35" width="34.55" height="34.55" fill="#123524"/><polygon points="863.75,587.35 863.75,621.9 829.2,621.9" fill="#017a31"/><rect x="863.75" y="587.35" width="34.55" height="34.55" fill="#017a31"/><g transform="translate(863.75,587.35) scale(1.7274999999999998) rotate(0)"><path d="M10 1L12.2451 7.90983H19.5106L13.6327 12.1803L15.8779 19.0902L10 14.8197L4.12215 19.0902L6.36729 12.1803L0.489441 7.90983H7.75487L10 1Z" fill="#123524"/></g><rect x="898.3" y="552.8" width="69.1" height="69.1" fill="#017a31"/><path d="M 898.3 552.8 A 69.1 69.1 0 0 1 967.4 621.9 L 898.3 621.9" fill="#123524"/><rect x="967.4" y="552.8" width="69.1" height="69.1" fill="#123524"/><rect x="967.4" y="552.8" width="69.1" height="69.1" fill="#017a31"/><rect x="1036.5" y="552.8" width="69.1" height="69.1" fill="#123524"/><rect x="1036.5" y="552.8" width="69.1" height="69.1" fill="#017a31"/><rect x="0" y="621.9" width="69.1" height="69.1" fill="#292929"/><rect x="0" y="621.9" width="34.55" height="34.55" fill="#017a31"/><polygon points="34.55,621.9 34.55,656.4499999999999 0,656.4499999999999" fill="#123524"/><rect x="34.55" y="621.9" width="34.55" height="34.55" fill="#123524"/><polygon points="69.1,621.9 69.1,656.4499999999999 34.55,656.4499999999999" fill="#017a31"/><rect x="0" y="656.45" width="34.55" height="34.55" fill="#123524"/><rect x="0" y="656.45" width="34.55" height="34.55" fill="#123524"/><rect x="34.55" y="656.45" width="34.55" height="34.55" fill="#017a31"/><path d="M 34.55 656.45 A 34.55 34.55 0 0 0 69.1 691 L 69.1 656.45" fill="#123524"/><rect x="69.1" y="621.9" width="69.1" height="69.1" fill="#292929"/><rect x="69.1" y="621.9" width="34.55" height="34.55" fill="#017a31"/><path d="M 69.1 656.4499999999999 A 34.55 34.55 0 0 1  103.64999999999999 621.9 L 69.1 656.4499999999999 A 34.55 34.55 0 0 0 103.64999999999999 621.9" fill="#017a31"/><rect x="103.65" y="621.9" width="34.55" height="34.55" fill="#017a31"/><polygon points="103.65,621.9 138.2,621.9 138.2,656.4499999999999" fill="#123524"/><rect x="69.1" y="656.45" width="34.55" height="34.55" fill="#017a31"/><path d="M 69.1 691 A 34.55 34.55 0 0 1  103.64999999999999 656.45 L 69.1 691 A 34.55 34.55 0 0 0 103.64999999999999 656.45" fill="#017a31"/><rect x="103.65" y="656.45" width="34.55" height="34.55" fill="#123524"/><path d="M 103.65 691 A 34.55 34.55 0 0 1  138.2 656.45 L 138.2 691" fill="#017a31"/><rect x="138.2" y="621.9" width="69.1" height="69.1" fill="#017a31"/><rect x="138.2" y="621.9" width="69.1" height="69.1" fill="#123524"/><rect x="207.29999999999998" y="621.9" width="69.1" height="69.1" fill="#292929"/><rect x="207.3" y="621.9" width="34.55" height="34.55" fill="#017a31"/><g transform="translate(207.3,621.9) scale(1.7274999999999998) rotate(0)"><path d="M10 1L12.2451 7.90983H19.5106L13.6327 12.1803L15.8779 19.0902L10 14.8197L4.12215 19.0902L6.36729 12.1803L0.489441 7.90983H7.75487L10 1Z" fill="#123524"/></g><rect x="241.85" y="621.9" width="34.55" height="34.55" fill="#017a31"/><rect x="241.85" y="621.9" width="34.55" height="34.55" fill="#123524"/><rect x="207.3" y="656.45" width="34.55" height="34.55" fill="#017a31"/><path d="M 207.3 656.45 A 34.55 34.55 0 0 0 241.85000000000002 691 L 241.85000000000002 656.45" fill="#017a31"/><rect x="241.85" y="656.45" width="34.55" height="34.55" fill="#017a31"/><g transform="translate(241.85,656.45) scale(1.7274999999999998) rotate(0)"><path d="M10 1L12.2451 7.90983H19.5106L13.6327 12.1803L15.8779 19.0902L10 14.8197L4.12215 19.0902L6.36729 12.1803L0.489441 7.90983H7.75487L10 1Z" fill="#017a31"/></g><rect x="276.4" y="621.9" width="69.1" height="69.1" fill="#123524"/><polygon points="345.5,621.9 345.5,691 276.4,691" fill="#017a31"/><rect x="345.5" y="621.9" width="69.1" height="69.1" fill="#292929"/><rect x="345.5" y="621.9" width="34.55" height="34.55" fill="#017a31"/><rect x="345.5" y="621.9" width="34.55" height="34.55" fill="#123524"/><rect x="380.05" y="621.9" width="34.55" height="34.55" fill="#123524"/><rect x="380.05" y="621.9" width="34.55" height="34.55" fill="#123524"/><rect x="345.5" y="656.45" width="34.55" height="34.55" fill="#123524"/><polygon points="345.5,656.45 380.05,656.45 345.5,691" fill="#017a31"/><rect x="380.05" y="656.45" width="34.55" height="34.55" fill="#123524"/><rect x="380.05" y="656.45" width="34.55" height="34.55" fill="#017a31"/><rect x="414.6" y="621.9" width="69.1" height="69.1" fill="#123524"/><g transform="translate(414.6,621.9) scale(3.4549999999999996) rotate(0)"><path d="M10 1L12.2451 7.90983H19.5106L13.6327 12.1803L15.8779 19.0902L10 14.8197L4.12215 19.0902L6.36729 12.1803L0.489441 7.90983H7.75487L10 1Z" fill="#123524"/></g><rect x="483.69999999999993" y="621.9" width="69.1" height="69.1" fill="#292929"/><rect x="483.7" y="621.9" width="34.55" height="34.55" fill="#017a31"/><polygon points="518.25,621.9 518.25,656.4499999999999 483.7,656.4499999999999" fill="#017a31"/><rect x="518.25" y="621.9" width="34.55" height="34.55" fill="#123524"/><rect x="518.25" y="621.9" width="34.55" height="34.55" fill="#017a31"/><rect x="483.7" y="656.45" width="34.55" height="34.55" fill="#123524"/><rect x="483.7" y="656.45" width="34.55" height="34.55" fill="#017a31"/><rect x="518.25" y="656.45" width="34.55" height="34.55" fill="#123524"/><polygon points="518.25,656.45 552.8,691 518.25,691" fill="#017a31"/><rect x="552.8" y="621.9" width="69.1" height="69.1" fill="#292929"/><rect x="552.8" y="621.9" width="34.55" height="34.55" fill="#017a31"/><g transform="translate(552.8,621.9) scale(1.7274999999999998) rotate(0)"><path d="M10 1L12.2451 7.90983H19.5106L13.6327 12.1803L15.8779 19.0902L10 14.8197L4.12215 19.0902L6.36729 12.1803L0.489441 7.90983H7.75487L10 1Z" fill="#123524"/></g><rect x="587.35" y="621.9" width="34.55" height="34.55" fill="#017a31"/><rect x="587.35" y="621.9" width="34.55" height="34.55" fill="#123524"/><rect x="552.8" y="656.45" width="34.55" height="34.55" fill="#123524"/><polygon points="552.8,656.45 587.3499999999999,691 552.8,691" fill="#017a31"/><rect x="587.35" y="656.45" width="34.55" height="34.55" fill="#017a31"/><polygon points="621.9,656.45 621.9,691 587.35,691" fill="#017a31"/><rect x="621.9" y="621.9" width="69.1" height="69.1" fill="#123524"/><path d="M 621.9 691 A 69.1 69.1 0 0 0 691 621.9 L 621.9 621.9" fill="#017a31"/><rect x="691" y="621.9" width="69.1" height="69.1" fill="#123524"/><rect x="691" y="621.9" width="69.1" height="69.1" fill="#123524"/><rect x="760.1" y="621.9" width="69.1" height="69.1" fill="#017a31"/><rect x="760.1" y="621.9" width="69.1" height="69.1" fill="#017a31"/><rect x="829.1999999999999" y="621.9" width="69.1" height="69.1" fill="#292929"/><rect x="829.2" y="621.9" width="34.55" height="34.55" fill="#017a31"/><rect x="829.2" y="621.9" width="34.55" height="34.55" fill="#123524"/><rect x="863.75" y="621.9" width="34.55" height="34.55" fill="#123524"/><g transform="translate(863.75,621.9) scale(1.7274999999999998) rotate(0)"><path d="M10 1L12.2451 7.90983H19.5106L13.6327 12.1803L15.8779 19.0902L10 14.8197L4.12215 19.0902L6.36729 12.1803L0.489441 7.90983H7.75487L10 1Z" fill="#017a31"/></g><rect x="829.2" y="656.45" width="34.55" height="34.55" fill="#123524"/><rect x="829.2" y="656.45" width="34.55" height="34.55" fill="#123524"/><rect x="863.75" y="656.45" width="34.55" height="34.55" fill="#123524"/><g transform="translate(863.75,656.45) scale(1.7274999999999998) rotate(0)"><path d="M10 1L12.2451 7.90983H19.5106L13.6327 12.1803L15.8779 19.0902L10 14.8197L4.12215 19.0902L6.36729 12.1803L0.489441 7.90983H7.75487L10 1Z" fill="#017a31"/></g><rect x="898.3" y="621.9" width="69.1" height="69.1" fill="#123524"/><path d="M 898.3 691 A 69.1 69.1 0 0 0 967.4 621.9 L 898.3 621.9" fill="#123524"/><rect x="967.4" y="621.9" width="69.1" height="69.1" fill="#123524"/><path d="M 967.4 691 A 69.1 69.1 0 0 0 1036.5 621.9 L 967.4 621.9" fill="#017a31"/><rect x="1036.5" y="621.9" width="69.1" height="69.1" fill="#292929"/><rect x="1036.5" y="621.9" width="34.55" height="34.55" fill="#123524"/><polygon points="1036.5,621.9 1071.05,621.9 1036.5,656.4499999999999" fill="#017a31"/><rect x="1071.05" y="621.9" width="34.55" height="34.55" fill="#017a31"/><path d="M 1071.05 621.9 A 34.55 34.55 0 0 0 1105.6 656.4499999999999 L 1105.6 621.9" fill="#123524"/><rect x="1036.5" y="656.45" width="34.55" height="34.55" fill="#123524"/><path d="M 1036.5 656.45 A 34.55 34.55 0 0 0 1071.05 691 L 1071.05 656.45" fill="#017a31"/><rect x="1071.05" y="656.45" width="34.55" height="34.55" fill="#017a31"/><path d="M 1071.05 656.45 A 34.55 34.55 0 0 1 1105.6 691 L 1071.05 691" fill="#123524"/></g></svg>