<svg xmlns="http://www.w3.org/2000/svg" version="1.1" xmlns:xlink="http://www.w3.org/1999/xlink" xmlns:svgjs="http://svgjs.dev/svgjs" width="1500" height="1500" viewBox="0 0 1500 1500"><rect width="1500" height="1500" fill="#000000"></rect><g transform="matrix(0.6666666666666666,0,0,0.6666666666666666,249.39393939393938,633.3969859821485)"><svg viewBox="0 0 396 92" data-background-color="#ffffff" preserveAspectRatio="xMidYMid meet" height="348" width="1500" xmlns="http://www.w3.org/2000/svg" xmlns:xlink="http://www.w3.org/1999/xlink"><g id="tight-bounds" transform="matrix(1,0,0,1,0.2400000000000091,0.23912624845831942)"><svg viewBox="0 0 395.52 91.52174750308338" height="91.52174750308338" width="395.52"><g><svg viewBox="0 0 559.1508988158547 129.3852836204156" height="91.52174750308338" width="395.52"><g><rect width="8.304251383709675" height="129.3852836204156" x="133.5877694643187" y="0" fill="#ffffff" opacity="1" stroke-width="0" stroke="transparent" fill-opacity="1" class="rect-qz-0" data-fill-palette-color="primary" rx="1%" id="qz-0" data-palette-color="#111111"></rect></g><g transform="matrix(1,0,0,1,163.63089881585475,0.32185393935425566)"><svg viewBox="0 0 395.52 128.7415757417071" height="128.7415757417071" width="395.52"><g id="textblocktransform"><svg viewBox="0 0 395.52 128.7415757417071" height="128.7415757417071" width="395.52" id="textblock"><g><svg viewBox="0 0 395.52 92.0842354488655" height="92.0842354488655" width="395.52"><g transform="matrix(1,0,0,1,0,0)"><svg width="395.52" viewBox="3.5 -35 152.04 35.4" height="92.0842354488655" data-palette-color="#111111"><path d="M14.1 0.4Q12.45 0.4 10.7-0.63 8.95-1.65 7.95-3.2L7.95-3.2 7.95 0 3.5 0 3.5-35 8.15-35 8.15-22.35Q9.25-23.7 10.9-24.53 12.55-25.35 14.2-25.35L14.2-25.35 17.75-25.35Q20.4-25.35 22.48-24.15 24.55-22.95 25.7-20.8 26.85-18.65 26.85-15.8L26.85-15.8 26.85-9.6Q26.85-6.65 25.68-4.38 24.5-2.1 22.4-0.85 20.3 0.4 17.55 0.4L17.55 0.4 14.1 0.4ZM13.9-3.7L17.25-3.7Q19.45-3.7 20.8-5.38 22.15-7.05 22.15-9.8L22.15-9.8 22.15-15.65Q22.15-18.15 20.83-19.7 19.5-21.25 17.4-21.25L17.4-21.25 14.15-21.25Q11.75-21.25 10.05-19.5 8.35-17.75 8.15-14.95L8.15-14.95 8.15-9.45Q8.35-7.05 10.05-5.38 11.75-3.7 13.9-3.7L13.9-3.7ZM40.3 0.4Q36.55 0.4 34.3-1.53 32.05-3.45 32.05-6.65L32.05-6.65 32.05-8.3Q32.05-11.45 34.4-13.38 36.75-15.3 40.55-15.3L40.55-15.3 43.7-15.3Q45.2-15.3 46.9-14.85 48.6-14.4 49.8-13.6L49.8-13.6 49.8-17.25Q49.8-19.1 48.65-20.23 47.5-21.35 45.65-21.35L45.65-21.35 41.55-21.35Q39.65-21.35 38.5-20.45 37.35-19.55 37.35-18.1L37.35-18.1 32.75-18.1Q32.75-21.35 35.17-23.35 37.6-25.35 41.55-25.35L41.55-25.35 45.65-25.35Q49.6-25.35 52-23.13 54.4-20.9 54.4-17.25L54.4-17.25 54.4 0 50.05 0 50.05-3.35Q48.9-1.65 47.05-0.63 45.2 0.4 43.3 0.4L43.3 0.4 40.3 0.4ZM40.6-3.45L43.55-3.45Q45.75-3.45 47.45-4.73 49.15-6 49.8-8.15L49.8-8.15 49.8-9.65Q48.85-10.5 47.2-11 45.55-11.5 43.8-11.5L43.8-11.5 40.6-11.5Q38.85-11.5 37.75-10.6 36.65-9.7 36.65-8.2L36.65-8.2 36.65-6.7Q36.65-5.2 37.72-4.33 38.8-3.45 40.6-3.45L40.6-3.45ZM68.89 0.4Q65.25 0.4 63.02-2.05 60.8-4.5 60.8-8.5L60.8-8.5 60.8-24.95 65.44-24.95 65.44-8.4Q65.44-6.3 66.5-5 67.55-3.7 69.25-3.7L69.25-3.7 72.25-3.7Q74.34-3.7 76.09-5.4 77.84-7.1 78.39-9.7L78.39-9.7 78.39-24.95 83.05-24.95 83.05 0 78.64 0 78.64-3.6Q77.44-1.85 75.64-0.73 73.84 0.4 72.09 0.4L72.09 0.4 68.89 0.4ZM100.64 0.4Q98.99 0.4 97.24-0.63 95.49-1.65 94.49-3.2L94.49-3.2 94.49 0 90.04 0 90.04-35 94.69-35 94.69-22.35Q95.79-23.7 97.44-24.53 99.09-25.35 100.74-25.35L100.74-25.35 104.29-25.35Q106.94-25.35 109.02-24.15 111.09-22.95 112.24-20.8 113.39-18.65 113.39-15.8L113.39-15.8 113.39-9.6Q113.39-6.65 112.22-4.38 111.04-2.1 108.94-0.85 106.84 0.4 104.09 0.4L104.09 0.4 100.64 0.4ZM100.44-3.7L103.79-3.7Q105.99-3.7 107.34-5.38 108.69-7.05 108.69-9.8L108.69-9.8 108.69-15.65Q108.69-18.15 107.37-19.7 106.04-21.25 103.94-21.25L103.94-21.25 100.69-21.25Q98.29-21.25 96.59-19.5 94.89-17.75 94.69-14.95L94.69-14.95 94.69-9.45Q94.89-7.05 96.59-5.38 98.29-3.7 100.44-3.7L100.44-3.7ZM126.84 0Q122.89 0 121.14-1.68 119.39-3.35 119.39-7.1L119.39-7.1 119.39-35 124.04-35 124.04-7.25Q124.04-5.55 124.74-4.8 125.44-4.05 127.04-4.05L127.04-4.05 129.04-4.05 129.04 0 126.84 0ZM141.99 0.4Q137.59 0.4 134.91-2.13 132.24-4.65 132.24-8.75L132.24-8.75 132.24-15.65Q132.24-20.05 134.91-22.7 137.59-25.35 141.99-25.35L141.99-25.35 146.09-25.35Q150.34-25.35 152.94-22.75 155.54-20.15 155.54-15.85L155.54-15.85 155.54-11.15 136.89-11.15 136.89-8.75Q136.89-6.45 138.29-5.05 139.69-3.65 141.99-3.65L141.99-3.65 145.84-3.65Q148.09-3.65 149.49-4.83 150.89-6 150.89-7.95L150.89-7.95 155.44-7.95Q155.44-4.2 152.79-1.9 150.14 0.4 145.79 0.4L145.79 0.4 141.99 0.4ZM136.89-14.85L150.89-14.85 150.89-15.85Q150.89-18.35 149.56-19.85 148.24-21.35 146.09-21.35L146.09-21.35 141.99-21.35Q139.69-21.35 138.29-19.78 136.89-18.2 136.89-15.6L136.89-15.6 136.89-14.85Z" opacity="1" transform="matrix(1,0,0,1,0,0)" fill="#ffffff" class="wordmark-text-0" data-fill-palette-color="primary" id="text-0"></path></svg></g></svg></g><g transform="matrix(1,0,0,1,0,113.82311341669187)"><svg viewBox="0 0 232.209792 14.918462325015216" height="14.918462325015216" width="232.209792"><g transform="matrix(1,0,0,1,0,0)"><svg width="232.209792" viewBox="2.6 -36.55 739.26 47.5" height="14.918462325015216" data-palette-color="#111111"><path d="M13.5 0.6L13.5 0.6Q11.15 0.6 9.18-0.25 7.2-1.1 5.73-2.7 4.25-4.3 3.43-6.63 2.6-8.95 2.6-11.95L2.6-11.95Q2.6-14.95 3.5-17.32 4.4-19.7 5.9-21.3 7.4-22.9 9.38-23.75 11.35-24.6 13.55-24.6L13.55-24.6Q16.05-24.6 17.7-23.7 19.35-22.8 20.6-21.65L20.6-21.65 19.3-20.1Q18.15-21.2 16.75-21.93 15.35-22.65 13.6-22.65L13.6-22.65Q11.75-22.65 10.18-21.88 8.6-21.1 7.43-19.68 6.25-18.25 5.58-16.3 4.9-14.35 4.9-11.95L4.9-11.95Q4.9-9.6 5.53-7.65 6.15-5.7 7.28-4.3 8.4-2.9 10.03-2.13 11.65-1.35 13.6-1.35L13.6-1.35Q15.5-1.35 17.13-2.15 18.75-2.95 20-4.1L20-4.1 21.15-2.55Q19.6-1.2 17.7-0.3 15.8 0.6 13.5 0.6ZM34.95 0.6L34.95 0.6Q32.8 0.6 30.85-0.25 28.9-1.1 27.42-2.7 25.95-4.3 25.07-6.63 24.2-8.95 24.2-11.95L24.2-11.95Q24.2-14.95 25.07-17.32 25.95-19.7 27.42-21.3 28.9-22.9 30.85-23.75 32.8-24.6 34.95-24.6L34.95-24.6Q37.1-24.6 39.07-23.75 41.05-22.9 42.52-21.3 44-19.7 44.87-17.32 45.75-14.95 45.75-11.95L45.75-11.95Q45.75-8.95 44.87-6.63 44-4.3 42.52-2.7 41.05-1.1 39.07-0.25 37.1 0.6 34.95 0.6ZM34.95-1.35L34.95-1.35Q36.75-1.35 38.32-2.13 39.9-2.9 41.02-4.3 42.15-5.7 42.8-7.65 43.45-9.6 43.45-11.95L43.45-11.95Q43.45-14.35 42.8-16.3 42.15-18.25 41.02-19.68 39.9-21.1 38.32-21.88 36.75-22.65 34.95-22.65L34.95-22.65Q33.15-22.65 31.6-21.88 30.05-21.1 28.92-19.68 27.8-18.25 27.15-16.3 26.5-14.35 26.5-11.95L26.5-11.95Q26.5-9.6 27.15-7.65 27.8-5.7 28.92-4.3 30.05-2.9 31.6-2.13 33.15-1.35 34.95-1.35ZM55.89 0.6L55.89 0.6Q52.95 0.6 52.95-3.2L52.95-3.2 52.95-35.95 55.14-35.95 55.14-2.9Q55.14-2.1 55.45-1.73 55.74-1.35 56.2-1.35L56.2-1.35Q56.34-1.35 56.52-1.35 56.7-1.35 57.09-1.45L57.09-1.45 57.49 0.35Q57.14 0.45 56.8 0.53 56.45 0.6 55.89 0.6ZM67.74 0.6L67.74 0.6Q64.79 0.6 64.79-3.2L64.79-3.2 64.79-35.95 66.99-35.95 66.99-2.9Q66.99-2.1 67.29-1.73 67.59-1.35 68.04-1.35L68.04-1.35Q68.19-1.35 68.37-1.35 68.54-1.35 68.94-1.45L68.94-1.45 69.34 0.35Q68.99 0.45 68.64 0.53 68.29 0.6 67.74 0.6ZM81.89 0.6L81.89 0.6Q80.44 0.6 79.19 0.2 77.94-0.2 76.99-1 76.04-1.8 75.49-3.05 74.94-4.3 74.94-6L74.94-6Q74.94-10 78.67-12.08 82.39-14.15 90.44-15.05L90.44-15.05Q90.44-16.4 90.24-17.78 90.04-19.15 89.39-20.23 88.74-21.3 87.64-21.98 86.54-22.65 84.74-22.65L84.74-22.65Q82.34-22.65 80.34-21.7 78.34-20.75 77.09-19.85L77.09-19.85 76.09-21.5Q76.74-21.95 77.67-22.5 78.59-23.05 79.74-23.5 80.89-23.95 82.24-24.28 83.59-24.6 85.04-24.6L85.04-24.6Q87.14-24.6 88.59-23.88 90.04-23.15 90.94-21.9 91.84-20.65 92.24-18.98 92.64-17.3 92.64-15.35L92.64-15.35 92.64 0 90.74 0 90.54-3.1 90.39-3.1Q88.54-1.65 86.42-0.53 84.29 0.6 81.89 0.6ZM82.29-1.3L82.29-1.3Q84.39-1.3 86.29-2.3 88.19-3.3 90.44-5.2L90.44-5.2 90.44-13.35Q86.74-12.9 84.19-12.25 81.64-11.6 80.09-10.7 78.54-9.8 77.87-8.65 77.19-7.5 77.19-6.1L77.19-6.1Q77.19-4.8 77.59-3.9 77.99-3 78.69-2.43 79.39-1.85 80.32-1.58 81.24-1.3 82.29-1.3ZM110.59 0.6L110.59 0.6Q108.84 0.6 106.96-0.23 105.09-1.05 103.39-2.45L103.39-2.45 103.29-2.45 103.04 0 101.19 0 101.19-35.95 103.39-35.95 103.39-25.55 103.29-20.85Q105.14-22.4 107.24-23.5 109.34-24.6 111.59-24.6L111.59-24.6Q116.39-24.6 118.79-21.28 121.19-17.95 121.19-12.35L121.19-12.35Q121.19-9.3 120.34-6.9 119.49-4.5 118.01-2.83 116.54-1.15 114.61-0.28 112.69 0.6 110.59 0.6ZM110.49-1.35L110.49-1.35Q112.29-1.35 113.84-2.15 115.39-2.95 116.49-4.4 117.59-5.85 118.21-7.88 118.84-9.9 118.84-12.35L118.84-12.35Q118.84-14.55 118.41-16.45 117.99-18.35 117.09-19.73 116.19-21.1 114.74-21.88 113.29-22.65 111.24-22.65L111.24-22.65Q109.44-22.65 107.49-21.63 105.54-20.6 103.39-18.7L103.39-18.7 103.39-4.45Q105.39-2.75 107.24-2.05 109.09-1.35 110.49-1.35ZM137.03 0.6L137.03 0.6Q134.88 0.6 132.94-0.25 130.99-1.1 129.51-2.7 128.03-4.3 127.16-6.63 126.28-8.95 126.28-11.95L126.28-11.95Q126.28-14.95 127.16-17.32 128.03-19.7 129.51-21.3 130.99-22.9 132.94-23.75 134.88-24.6 137.03-24.6L137.03-24.6Q139.19-24.6 141.16-23.75 143.13-22.9 144.61-21.3 146.09-19.7 146.96-17.32 147.84-14.95 147.84-11.95L147.84-11.95Q147.84-8.95 146.96-6.63 146.09-4.3 144.61-2.7 143.13-1.1 141.16-0.25 139.19 0.6 137.03 0.6ZM137.03-1.35L137.03-1.35Q138.84-1.35 140.41-2.13 141.99-2.9 143.11-4.3 144.24-5.7 144.88-7.65 145.53-9.6 145.53-11.95L145.53-11.95Q145.53-14.35 144.88-16.3 144.24-18.25 143.11-19.68 141.99-21.1 140.41-21.88 138.84-22.65 137.03-22.65L137.03-22.65Q135.24-22.65 133.69-21.88 132.13-21.1 131.01-19.68 129.88-18.25 129.24-16.3 128.59-14.35 128.59-11.95L128.59-11.95Q128.59-9.6 129.24-7.65 129.88-5.7 131.01-4.3 132.13-2.9 133.69-2.13 135.24-1.35 137.03-1.35ZM157.23 0L155.03 0 155.03-24 156.93-24 157.13-19.55 157.28-19.55Q158.48-21.8 160.21-23.2 161.93-24.6 164.08-24.6L164.08-24.6Q164.78-24.6 165.33-24.5 165.88-24.4 166.48-24.1L166.48-24.1 165.98-22.1Q165.38-22.35 164.93-22.43 164.48-22.5 163.78-22.5L163.78-22.5Q162.18-22.5 160.41-21.13 158.63-19.75 157.23-16.35L157.23-16.35 157.23 0ZM175.08 0.6L175.08 0.6Q173.63 0.6 172.38 0.2 171.13-0.2 170.18-1 169.23-1.8 168.68-3.05 168.13-4.3 168.13-6L168.13-6Q168.13-10 171.85-12.08 175.58-14.15 183.63-15.05L183.63-15.05Q183.63-16.4 183.43-17.78 183.23-19.15 182.58-20.23 181.93-21.3 180.83-21.98 179.73-22.65 177.93-22.65L177.93-22.65Q175.53-22.65 173.53-21.7 171.53-20.75 170.28-19.85L170.28-19.85 169.28-21.5Q169.93-21.95 170.85-22.5 171.78-23.05 172.93-23.5 174.08-23.95 175.43-24.28 176.78-24.6 178.23-24.6L178.23-24.6Q180.33-24.6 181.78-23.88 183.23-23.15 184.13-21.9 185.03-20.65 185.43-18.98 185.83-17.3 185.83-15.35L185.83-15.35 185.83 0 183.93 0 183.73-3.1 183.58-3.1Q181.73-1.65 179.6-0.53 177.48 0.6 175.08 0.6ZM175.48-1.3L175.48-1.3Q177.58-1.3 179.48-2.3 181.38-3.3 183.63-5.2L183.63-5.2 183.63-13.35Q179.93-12.9 177.38-12.25 174.83-11.6 173.28-10.7 171.73-9.8 171.05-8.65 170.38-7.5 170.38-6.1L170.38-6.1Q170.38-4.8 170.78-3.9 171.18-3 171.88-2.43 172.58-1.85 173.5-1.58 174.43-1.3 175.48-1.3ZM200.38 0.6L200.38 0.6Q198.63 0.6 197.48 0.08 196.33-0.45 195.63-1.4 194.93-2.35 194.65-3.7 194.38-5.05 194.38-6.65L194.38-6.65 194.38-22.1 190.63-22.1 190.63-23.8 194.43-24 194.73-30.95 196.63-30.95 196.63-24 203.58-24 203.58-22.1 196.63-22.1 196.63-6.45Q196.63-5.3 196.8-4.38 196.98-3.45 197.43-2.78 197.88-2.1 198.65-1.73 199.43-1.35 200.68-1.35L200.68-1.35Q201.38-1.35 202.2-1.58 203.03-1.8 203.68-2.1L203.68-2.1 204.28-0.3Q203.23 0.1 202.18 0.35 201.13 0.6 200.38 0.6ZM211.63 0L209.42 0 209.42-24 211.63-24 211.63 0ZM210.57-29.8L210.57-29.8Q209.72-29.8 209.15-30.35 208.57-30.9 208.57-31.75L208.57-31.75Q208.57-32.7 209.15-33.23 209.72-33.75 210.57-33.75L210.57-33.75Q211.42-33.75 212-33.23 212.57-32.7 212.57-31.75L212.57-31.75Q212.57-30.9 212-30.35 211.42-29.8 210.57-29.8ZM229.62 0.6L229.62 0.6Q227.47 0.6 225.52-0.25 223.57-1.1 222.1-2.7 220.62-4.3 219.75-6.63 218.87-8.95 218.87-11.95L218.87-11.95Q218.87-14.95 219.75-17.32 220.62-19.7 222.1-21.3 223.57-22.9 225.52-23.75 227.47-24.6 229.62-24.6L229.62-24.6Q231.77-24.6 233.75-23.75 235.72-22.9 237.2-21.3 238.67-19.7 239.55-17.32 240.42-14.95 240.42-11.95L240.42-11.95Q240.42-8.95 239.55-6.63 238.67-4.3 237.2-2.7 235.72-1.1 233.75-0.25 231.77 0.6 229.62 0.6ZM229.62-1.35L229.62-1.35Q231.42-1.35 233-2.13 234.57-2.9 235.7-4.3 236.82-5.7 237.47-7.65 238.12-9.6 238.12-11.95L238.12-11.95Q238.12-14.35 237.47-16.3 236.82-18.25 235.7-19.68 234.57-21.1 233-21.88 231.42-22.65 229.62-22.65L229.62-22.65Q227.82-22.65 226.27-21.88 224.72-21.1 223.6-19.68 222.47-18.25 221.82-16.3 221.17-14.35 221.17-11.95L221.17-11.95Q221.17-9.6 221.82-7.65 222.47-5.7 223.6-4.3 224.72-2.9 226.27-2.13 227.82-1.35 229.62-1.35ZM249.82 0L247.62 0 247.62-24 249.52-24 249.72-20.3 249.87-20.3Q251.72-22.15 253.67-23.38 255.62-24.6 258.12-24.6L258.12-24.6Q261.87-24.6 263.62-22.35 265.37-20.1 265.37-15.4L265.37-15.4 265.37 0 263.17 0 263.17-15.1Q263.17-18.95 261.89-20.78 260.62-22.6 257.67-22.6L257.67-22.6Q255.52-22.6 253.77-21.48 252.02-20.35 249.82-18.1L249.82-18.1 249.82 0ZM286.42 10.85L284.22 10.85 284.22-24 286.12-24 286.31-21 286.47-21Q288.22-22.4 290.29-23.5 292.37-24.6 294.62-24.6L294.62-24.6Q299.42-24.6 301.81-21.28 304.22-17.95 304.22-12.35L304.22-12.35Q304.22-9.3 303.37-6.9 302.51-4.5 301.04-2.83 299.56-1.15 297.64-0.28 295.72 0.6 293.62 0.6L293.62 0.6Q291.92 0.6 290.12-0.18 288.31-0.95 286.42-2.35L286.42-2.35 286.42 10.85ZM293.51-1.35L293.51-1.35Q295.31-1.35 296.87-2.15 298.42-2.95 299.51-4.4 300.62-5.85 301.24-7.88 301.87-9.9 301.87-12.35L301.87-12.35Q301.87-14.55 301.44-16.45 301.01-18.35 300.12-19.73 299.22-21.1 297.76-21.88 296.31-22.65 294.26-22.65L294.26-22.65Q292.47-22.65 290.54-21.63 288.62-20.6 286.42-18.7L286.42-18.7 286.42-4.45Q288.51-2.75 290.31-2.05 292.12-1.35 293.51-1.35ZM320.51 0.6L320.51 0.6Q318.21 0.6 316.19-0.25 314.16-1.1 312.66-2.73 311.16-4.35 310.29-6.68 309.41-9 309.41-11.95L309.41-11.95Q309.41-14.9 310.29-17.25 311.16-19.6 312.64-21.23 314.11-22.85 315.99-23.73 317.86-24.6 319.86-24.6L319.86-24.6Q324.16-24.6 326.61-21.7 329.06-18.8 329.06-13.5L329.06-13.5Q329.06-13.05 329.06-12.6 329.06-12.15 328.96-11.7L328.96-11.7 311.66-11.7Q311.71-9.45 312.36-7.53 313.01-5.6 314.19-4.23 315.36-2.85 317.01-2.08 318.66-1.3 320.71-1.3L320.71-1.3Q322.66-1.3 324.24-1.88 325.81-2.45 327.16-3.45L327.16-3.45 328.06-1.75Q326.61-0.9 324.89-0.15 323.16 0.6 320.51 0.6ZM311.66-13.5L311.66-13.5 326.96-13.5Q326.96-18.15 325.06-20.43 323.16-22.7 319.91-22.7L319.91-22.7Q318.36-22.7 316.96-22.08 315.56-21.45 314.44-20.25 313.31-19.05 312.59-17.35 311.86-15.65 311.66-13.5ZM337.76 0L335.56 0 335.56-24 337.46-24 337.66-19.55 337.81-19.55Q339.01-21.8 340.73-23.2 342.46-24.6 344.61-24.6L344.61-24.6Q345.31-24.6 345.86-24.5 346.41-24.4 347.01-24.1L347.01-24.1 346.51-22.1Q345.91-22.35 345.46-22.43 345.01-22.5 344.31-22.5L344.31-22.5Q342.71-22.5 340.94-21.13 339.16-19.75 337.76-16.35L337.76-16.35 337.76 0ZM353.96 0L351.76 0 351.76-22.1 348.46-22.1 348.46-23.8 351.76-24 351.76-29.35Q351.76-32.95 353.31-34.75 354.86-36.55 357.71-36.55L357.71-36.55Q359.46-36.55 361.21-35.75L361.21-35.75 360.61-33.95Q359.86-34.35 359.13-34.5 358.41-34.65 357.71-34.65L357.71-34.65Q355.81-34.65 354.88-33.25 353.96-31.85 353.96-29.2L353.96-29.2 353.96-24 359.51-24 359.51-22.1 353.96-22.1 353.96 0ZM373.15 0.6L373.15 0.6Q370.85 0.6 368.83-0.25 366.81-1.1 365.31-2.73 363.81-4.35 362.93-6.68 362.06-9 362.06-11.95L362.06-11.95Q362.06-14.9 362.93-17.25 363.81-19.6 365.28-21.23 366.75-22.85 368.63-23.73 370.5-24.6 372.5-24.6L372.5-24.6Q376.81-24.6 379.25-21.7 381.7-18.8 381.7-13.5L381.7-13.5Q381.7-13.05 381.7-12.6 381.7-12.15 381.6-11.7L381.6-11.7 364.31-11.7Q364.35-9.45 365-7.53 365.65-5.6 366.83-4.23 368-2.85 369.65-2.08 371.31-1.3 373.35-1.3L373.35-1.3Q375.31-1.3 376.88-1.88 378.45-2.45 379.81-3.45L379.81-3.45 380.7-1.75Q379.25-0.9 377.53-0.15 375.81 0.6 373.15 0.6ZM364.31-13.5L364.31-13.5 379.6-13.5Q379.6-18.15 377.7-20.43 375.81-22.7 372.56-22.7L372.56-22.7Q371-22.7 369.6-22.08 368.2-21.45 367.08-20.25 365.95-19.05 365.23-17.35 364.5-15.65 364.31-13.5ZM397.1 0.6L397.1 0.6Q394.75 0.6 392.78-0.25 390.8-1.1 389.33-2.7 387.85-4.3 387.03-6.63 386.2-8.95 386.2-11.95L386.2-11.95Q386.2-14.95 387.1-17.32 388-19.7 389.5-21.3 391-22.9 392.98-23.75 394.95-24.6 397.15-24.6L397.15-24.6Q399.65-24.6 401.3-23.7 402.95-22.8 404.2-21.65L404.2-21.65 402.9-20.1Q401.75-21.2 400.35-21.93 398.95-22.65 397.2-22.65L397.2-22.65Q395.35-22.65 393.78-21.88 392.2-21.1 391.03-19.68 389.85-18.25 389.18-16.3 388.5-14.35 388.5-11.95L388.5-11.95Q388.5-9.6 389.13-7.65 389.75-5.7 390.88-4.3 392-2.9 393.63-2.13 395.25-1.35 397.2-1.35L397.2-1.35Q399.1-1.35 400.73-2.15 402.35-2.95 403.6-4.1L403.6-4.1 404.75-2.55Q403.2-1.2 401.3-0.3 399.4 0.6 397.1 0.6ZM416.7 0.6L416.7 0.6Q414.95 0.6 413.8 0.08 412.65-0.45 411.95-1.4 411.25-2.35 410.97-3.7 410.7-5.05 410.7-6.65L410.7-6.65 410.7-22.1 406.95-22.1 406.95-23.8 410.75-24 411.05-30.95 412.95-30.95 412.95-24 419.9-24 419.9-22.1 412.95-22.1 412.95-6.45Q412.95-5.3 413.12-4.38 413.3-3.45 413.75-2.78 414.2-2.1 414.97-1.73 415.75-1.35 417-1.35L417-1.35Q417.7-1.35 418.52-1.58 419.35-1.8 420-2.1L420-2.1 420.6-0.3Q419.55 0.1 418.5 0.35 417.45 0.6 416.7 0.6ZM434.3 0.6L434.3 0.6Q432 0.6 429.97-0.25 427.95-1.1 426.45-2.73 424.95-4.35 424.07-6.68 423.2-9 423.2-11.95L423.2-11.95Q423.2-14.9 424.07-17.25 424.95-19.6 426.42-21.23 427.9-22.85 429.77-23.73 431.65-24.6 433.65-24.6L433.65-24.6Q437.95-24.6 440.4-21.7 442.85-18.8 442.85-13.5L442.85-13.5Q442.85-13.05 442.85-12.6 442.85-12.15 442.75-11.7L442.75-11.7 425.45-11.7Q425.5-9.45 426.15-7.53 426.8-5.6 427.97-4.23 429.15-2.85 430.8-2.08 432.45-1.3 434.5-1.3L434.5-1.3Q436.45-1.3 438.02-1.88 439.6-2.45 440.95-3.45L440.95-3.45 441.85-1.75Q440.4-0.9 438.67-0.15 436.95 0.6 434.3 0.6ZM425.45-13.5L425.45-13.5 440.75-13.5Q440.75-18.15 438.85-20.43 436.95-22.7 433.7-22.7L433.7-22.7Q432.15-22.7 430.75-22.08 429.35-21.45 428.22-20.25 427.1-19.05 426.37-17.35 425.65-15.65 425.45-13.5ZM457.29 0.6L457.29 0.6Q452.74 0.6 450.04-2.63 447.34-5.85 447.34-11.95L447.34-11.95Q447.34-14.85 448.19-17.2 449.04-19.55 450.52-21.2 451.99-22.85 453.92-23.73 455.84-24.6 457.99-24.6L457.99-24.6Q460.19-24.6 461.82-23.83 463.44-23.05 465.24-21.65L465.24-21.65 465.14-26.05 465.14-35.95 467.34-35.95 467.34 0 465.44 0 465.24-3.1 465.09-3.1Q463.64-1.65 461.67-0.53 459.69 0.6 457.29 0.6ZM457.59-1.35L457.59-1.35Q459.59-1.35 461.42-2.38 463.24-3.4 465.14-5.3L465.14-5.3 465.14-19.55Q463.24-21.25 461.57-21.95 459.89-22.65 458.14-22.65L458.14-22.65Q456.34-22.65 454.79-21.83 453.24-21 452.12-19.58 450.99-18.15 450.34-16.18 449.69-14.2 449.69-11.95L449.69-11.95Q449.69-9.55 450.22-7.6 450.74-5.65 451.74-4.28 452.74-2.9 454.22-2.13 455.69-1.35 457.59-1.35ZM489.09 0L486.89 0 486.89-22.1 483.59-22.1 483.59-23.8 486.89-24 486.89-29.35Q486.89-32.95 488.44-34.75 489.99-36.55 492.84-36.55L492.84-36.55Q494.59-36.55 496.34-35.75L496.34-35.75 495.74-33.95Q494.99-34.35 494.26-34.5 493.54-34.65 492.84-34.65L492.84-34.65Q490.94-34.65 490.01-33.25 489.09-31.85 489.09-29.2L489.09-29.2 489.09-24 494.64-24 494.64-22.1 489.09-22.1 489.09 0ZM507.94 0.6L507.94 0.6Q505.79 0.6 503.84-0.25 501.89-1.1 500.41-2.7 498.94-4.3 498.06-6.63 497.19-8.95 497.19-11.95L497.19-11.95Q497.19-14.95 498.06-17.32 498.94-19.7 500.41-21.3 501.89-22.9 503.84-23.75 505.79-24.6 507.94-24.6L507.94-24.6Q510.09-24.6 512.06-23.75 514.04-22.9 515.51-21.3 516.99-19.7 517.86-17.32 518.74-14.95 518.74-11.95L518.74-11.95Q518.74-8.95 517.86-6.63 516.99-4.3 515.51-2.7 514.04-1.1 512.06-0.25 510.09 0.6 507.94 0.6ZM507.94-1.35L507.94-1.35Q509.74-1.35 511.31-2.13 512.89-2.9 514.01-4.3 515.14-5.7 515.79-7.65 516.44-9.6 516.44-11.95L516.44-11.95Q516.44-14.35 515.79-16.3 515.14-18.25 514.01-19.68 512.89-21.1 511.31-21.88 509.74-22.65 507.94-22.65L507.94-22.65Q506.14-22.65 504.59-21.88 503.04-21.1 501.91-19.68 500.79-18.25 500.14-16.3 499.49-14.35 499.49-11.95L499.49-11.95Q499.49-9.6 500.14-7.65 500.79-5.7 501.91-4.3 503.04-2.9 504.59-2.13 506.14-1.35 507.94-1.35ZM528.13 0L525.93 0 525.93-24 527.83-24 528.03-19.55 528.18-19.55Q529.38-21.8 531.11-23.2 532.83-24.6 534.98-24.6L534.98-24.6Q535.68-24.6 536.23-24.5 536.78-24.4 537.38-24.1L537.38-24.1 536.88-22.1Q536.28-22.35 535.83-22.43 535.38-22.5 534.68-22.5L534.68-22.5Q533.08-22.5 531.31-21.13 529.53-19.75 528.13-16.35L528.13-16.35 528.13 0ZM558.68 0.6L558.68 0.6Q554.93 0.6 553.18-1.65 551.43-3.9 551.43-8.6L551.43-8.6 551.43-24 553.63-24 553.63-8.9Q553.63-5.05 554.9-3.23 556.18-1.4 559.08-1.4L559.08-1.4Q561.23-1.4 562.98-2.58 564.73-3.75 566.83-6.3L566.83-6.3 566.83-24 569.03-24 569.03 0 567.18 0 566.93-4 566.83-4Q565.08-1.9 563.13-0.65 561.18 0.6 558.68 0.6ZM580.43 0L578.23 0 578.23-24 580.13-24 580.33-20.3 580.48-20.3Q582.33-22.15 584.28-23.38 586.23-24.6 588.73-24.6L588.73-24.6Q592.48-24.6 594.23-22.35 595.98-20.1 595.98-15.4L595.98-15.4 595.98 0 593.78 0 593.78-15.1Q593.78-18.95 592.5-20.78 591.23-22.6 588.28-22.6L588.28-22.6Q586.13-22.6 584.38-21.48 582.63-20.35 580.43-18.1L580.43-18.1 580.43 0ZM607.02 0L604.82 0 604.82-24 607.02-24 607.02 0ZM605.97-29.8L605.97-29.8Q605.12-29.8 604.55-30.35 603.97-30.9 603.97-31.75L603.97-31.75Q603.97-32.7 604.55-33.23 605.12-33.75 605.97-33.75L605.97-33.75Q606.82-33.75 607.4-33.23 607.97-32.7 607.97-31.75L607.97-31.75Q607.97-30.9 607.4-30.35 606.82-29.8 605.97-29.8ZM623.87 0L621.27 0 612.27-24 614.67-24 620.07-8.95Q620.62-7.2 621.27-5.45 621.92-3.7 622.47-2.05L622.47-2.05 622.67-2.05Q623.27-3.7 623.9-5.45 624.52-7.2 625.12-8.95L625.12-8.95 630.52-24 632.77-24 623.87 0ZM647.07 0.6L647.07 0.6Q644.77 0.6 642.74-0.25 640.72-1.1 639.22-2.73 637.72-4.35 636.84-6.68 635.97-9 635.97-11.95L635.97-11.95Q635.97-14.9 636.84-17.25 637.72-19.6 639.19-21.23 640.67-22.85 642.54-23.73 644.42-24.6 646.42-24.6L646.42-24.6Q650.72-24.6 653.17-21.7 655.62-18.8 655.62-13.5L655.62-13.5Q655.62-13.05 655.62-12.6 655.62-12.15 655.52-11.7L655.52-11.7 638.22-11.7Q638.27-9.45 638.92-7.53 639.57-5.6 640.74-4.23 641.92-2.85 643.57-2.08 645.22-1.3 647.27-1.3L647.27-1.3Q649.22-1.3 650.79-1.88 652.37-2.45 653.72-3.45L653.72-3.45 654.62-1.75Q653.17-0.9 651.44-0.15 649.72 0.6 647.07 0.6ZM638.22-13.5L638.22-13.5 653.52-13.5Q653.52-18.15 651.62-20.43 649.72-22.7 646.47-22.7L646.47-22.7Q644.92-22.7 643.52-22.08 642.12-21.45 640.99-20.25 639.87-19.05 639.14-17.35 638.42-15.65 638.22-13.5ZM664.32 0L662.12 0 662.12-24 664.02-24 664.22-19.55 664.37-19.55Q665.57-21.8 667.29-23.2 669.02-24.6 671.17-24.6L671.17-24.6Q671.87-24.6 672.42-24.5 672.97-24.4 673.57-24.1L673.57-24.1 673.07-22.1Q672.47-22.35 672.02-22.43 671.57-22.5 670.87-22.5L670.87-22.5Q669.27-22.5 667.49-21.13 665.72-19.75 664.32-16.35L664.32-16.35 664.32 0ZM683.76 0.6L683.76 0.6Q681.06 0.6 678.81-0.38 676.56-1.35 674.96-2.7L674.96-2.7 676.26-4.35Q677.81-3.05 679.56-2.18 681.31-1.3 683.91-1.3L683.91-1.3Q686.76-1.3 688.19-2.73 689.61-4.15 689.61-6.05L689.61-6.05Q689.61-7.15 689.09-8 688.56-8.85 687.71-9.45 686.86-10.05 685.84-10.5 684.81-10.95 683.76-11.35L683.76-11.35Q682.41-11.85 681.04-12.4 679.66-12.95 678.56-13.73 677.46-14.5 676.79-15.58 676.11-16.65 676.11-18.2L676.11-18.2Q676.11-19.5 676.61-20.68 677.11-21.85 678.11-22.73 679.11-23.6 680.54-24.1 681.96-24.6 683.86-24.6L683.86-24.6Q685.76-24.6 687.59-23.9 689.41-23.2 690.71-22.1L690.71-22.1 689.51-20.55Q688.31-21.45 686.96-22.08 685.61-22.7 683.76-22.7L683.76-22.7Q682.36-22.7 681.36-22.33 680.36-21.95 679.69-21.35 679.01-20.75 678.69-19.95 678.36-19.15 678.36-18.35L678.36-18.35Q678.36-17.3 678.84-16.57 679.31-15.85 680.11-15.3 680.91-14.75 681.94-14.33 682.96-13.9 684.01-13.5L684.01-13.5Q685.41-12.95 686.81-12.4 688.21-11.85 689.34-11.05 690.46-10.25 691.16-9.08 691.86-7.9 691.86-6.15L691.86-6.15Q691.86-4.8 691.34-3.58 690.81-2.35 689.76-1.43 688.71-0.5 687.21 0.05 685.71 0.6 683.76 0.6ZM700.41 0L698.21 0 698.21-24 700.41-24 700.41 0ZM699.36-29.8L699.36-29.8Q698.51-29.8 697.94-30.35 697.36-30.9 697.36-31.75L697.36-31.75Q697.36-32.7 697.94-33.23 698.51-33.75 699.36-33.75L699.36-33.75Q700.21-33.75 700.79-33.23 701.36-32.7 701.36-31.75L701.36-31.75Q701.36-30.9 700.79-30.35 700.21-29.8 699.36-29.8ZM716.21 0.6L716.21 0.6Q714.46 0.6 713.31 0.08 712.16-0.45 711.46-1.4 710.76-2.35 710.48-3.7 710.21-5.05 710.21-6.65L710.21-6.65 710.21-22.1 706.46-22.1 706.46-23.8 710.26-24 710.56-30.95 712.46-30.95 712.46-24 719.41-24 719.41-22.1 712.46-22.1 712.46-6.45Q712.46-5.3 712.63-4.38 712.81-3.45 713.26-2.78 713.71-2.1 714.48-1.73 715.26-1.35 716.51-1.35L716.51-1.35Q717.21-1.35 718.03-1.58 718.86-1.8 719.51-2.1L719.51-2.1 720.11-0.3Q719.06 0.1 718.01 0.35 716.96 0.6 716.21 0.6ZM724.31 10.95L724.31 10.95Q722.96 10.95 721.86 10.45L721.86 10.45 722.36 8.5Q722.76 8.65 723.26 8.78 723.76 8.9 724.31 8.9L724.31 8.9Q726.56 8.9 728.06 7.1 729.56 5.3 730.46 2.55L730.46 2.55 731.11 0.45 721.26-24 723.66-24 729.46-8.9Q730.01-7.4 730.68-5.6 731.36-3.8 732.06-2.2L732.06-2.2 732.26-2.2Q732.81-3.8 733.38-5.6 733.96-7.4 734.46-8.9L734.46-8.9 739.61-24 741.86-24 732.36 3Q731.86 4.5 731.13 5.95 730.41 7.4 729.43 8.5 728.46 9.6 727.18 10.28 725.91 10.95 724.31 10.95Z" opacity="1" transform="matrix(1,0,0,1,0,0)" fill="#ffffff" class="slogan-text-1" data-fill-palette-color="secondary" id="text-1"></path></svg></g></svg></g></svg></g></svg></g><g transform="matrix(1,0,0,1,0,6.115224847731071)"><svg viewBox="0 0 111.84889149649233 117.15483392495346" height="117.15483392495346" width="111.84889149649233"><g><svg version="1.0" xmlns="http://www.w3.org/2000/svg" xmlns:xlink="http://www.w3.org/1999/xlink" x="0" y="0" viewBox="0 0 95.471 100" enable-background="new 0 0 95.471 100" xml:space="preserve" width="111.84889149649233" height="117.15483392495346" class="icon-icon-0" data-fill-palette-color="accent" id="icon-0"><path d="M47.735 0c-0.083 2.825-1.738 13.412-19.799 30.934C10.554 47.797 2.439 49.824 0 50c2.439 0.178 10.554 2.204 27.936 19.066C45.997 86.589 47.652 97.177 47.735 100c0.083-2.823 1.739-13.411 19.798-30.934C84.917 52.204 93.031 50.178 95.471 50c-2.439-0.176-10.554-2.203-27.938-19.066C49.475 13.412 47.819 2.825 47.735 0z" fill="#ffffff" data-fill-palette-color="accent"></path></svg></g></svg></g></svg></g><defs></defs></svg><rect width="395.52" height="91.52174750308338" fill="none" stroke="none" visibility="hidden"></rect></g></svg></g></svg>